<svg width="2181" height="483" viewBox="0 0 2181 483" fill="none" xmlns="http://www.w3.org/2000/svg">
<g filter="url(#filter0_d_371_10)">
<path d="M436.478 64.4714L439.561 68.0587C445.991 75.5401 451.116 83.1264 455.375 92.1241C457.313 91.3127 458.153 90.689 460.237 89.0582L459.455 97.0475C459.249 99.146 458.776 101.88 459.121 103.916C459.776 107.782 461.78 111.398 462.179 115.21L464.068 133.319L465.079 146.104L464.288 168.554L463.138 182.313C462.776 186.654 461.238 190.656 461.627 195.306C461.9 198.589 459.687 202.402 460.402 205.599L463.084 217.629C463.151 217.94 463.717 218.827 463.885 219.08C464.053 219.334 465.104 218.226 465.281 217.852L471.366 205.238L475.449 197.888L484.225 183.718L480.677 164.787L480.03 160.718L477.163 145.34L473.156 121.251L472.159 112.632L470.043 96.5471L466.362 69.7053L463.447 51.6824C463.119 49.6599 463.246 47.5334 464.28 46.1107L477.447 94.5624L489.595 132.151L494.868 151.241L499.911 169.656L503.18 182.512L505.163 192.134C507.268 197.578 508.016 203.056 509.383 208.734L514.777 231.076L519.063 245.103C519.712 247.238 519.914 249.014 521.272 250.693L526.51 231.629L529.542 221.147C529.845 220.094 529.621 217.527 529.45 216.479L525.87 194.225L526.088 184.721L529.357 191.323C529.556 191.72 530.415 192.385 530.787 192.468C531.282 192.581 531.796 191.352 531.934 190.711L534.382 179.176C536.184 170.675 537.245 162.501 539.713 154.121L539.017 148.601L546.32 160.784C549.721 151.753 552.132 143.87 556.674 135.541L554.177 153.187L551.122 174.826C552.587 181.851 554.687 188.57 557.431 195.211L561.453 208.641L567.186 227.178C569.018 233.103 571.365 238.211 571.829 244.565C572.381 252.18 577.285 258.315 577.373 264.659C577.392 266.12 576.571 268.759 577.017 270.171L580.531 281.318L584.189 292.564L581.988 296.1L584.496 324.007L584.808 331.346L585.725 332.519L593.871 327.855C593.959 332.332 586.419 336.221 586.86 341.797L597.534 326.476C600.631 322.029 602.604 317.054 604.096 311.935L608.191 297.875L604.177 282.252L600.243 266.749C598.542 260.059 595.832 255.385 591.192 250.296C587.919 246.701 586.804 240.868 584.967 236.378L578.367 220.264C575.039 212.137 572.513 204.273 570.252 195.828L560.316 166.67C564.631 171.708 565.933 177.789 568.19 183.707L571.689 192.888L578.606 204.149L593.254 229.114C596.334 234.364 604.66 238.414 606.689 244.039L610.406 254.32L612.612 259.713L615.886 266.913C616.388 268.012 617.621 270.338 619.305 269.707C620.419 269.008 621.61 266.49 622.409 265.223C624.206 262.379 624.62 259.858 623.35 256.538L579.899 142.933L569.699 120.448L559.157 87.5489C557.737 83.1078 557.036 79.1532 557.199 74.428L557.401 68.4968C557.479 66.2265 558.173 62.7807 557.537 60.7636L555.273 53.5634C559.668 54.68 558.881 58.5716 559.83 61.4769L562.786 70.5364L564.374 85.1142C567.061 97.0459 572.255 107.808 577.642 118.665L582.684 128.818L592.018 147.587L601.991 169.033L606.308 182.044L612.174 198.189L618.007 210.457L623.17 219.912C623.997 224.544 625.04 229.006 627.032 233.336L632.109 244.383C632.34 244.886 633.383 246.168 633.705 245.843L635.302 244.204C635.259 244.202 636.301 244.332 636.589 244.369L635.569 252.299C634.908 257.441 638.031 262.564 639.119 267.552C640.126 272.154 641.114 275.893 642.972 280.173L644.309 274.648L646.856 264.558L653.657 236.072L659.471 210.963L665.748 183.81L669.462 166.813L664.201 131.599C661.815 115.632 658.954 100.267 657.888 84.1214C657.703 81.3593 657.67 79.0843 658.531 76.0647C659.884 80.7678 658.269 84.5812 661.047 91.4335L672.791 120.373L683.033 148.411L688.19 164.125L692.167 178.472L692.417 187.25L692.075 206.534L691.878 224.844L691.949 237.281L692.09 249.524L691.593 271.161C691.539 273.444 691.767 275.629 691.334 277.847L688.248 293.835C687.451 297.954 687.352 301.148 687.217 305.517C687.07 310.132 686.329 316.447 684.675 320.727C682.62 326.031 680.109 329.887 680.066 335.856L680.015 342.292C677.594 349.417 674.718 356.646 675.986 364.377C676.487 367.406 677.479 371.021 675.598 373.831C673.145 377.492 671.114 381.51 671.336 386.017C671.471 388.783 673.837 390.091 676.28 390.176C682.272 390.393 687.601 390.551 693.561 388.918L694.555 365.441L699.743 350.041L710.718 323.808L717.594 306.952L742.977 258.284C743.126 258.106 743.81 257.254 743.819 257.464L743.899 259.217L742.981 286.991C739.99 293.032 737.456 298.883 735.867 305.409L730.94 314.079L725.137 327.722C723.618 331.299 722.732 335.476 720.496 338.659L704.728 361.072C702.29 364.537 699.209 368.898 699.471 373.179L700.437 388.932C702.291 390.545 705.405 389.9 707.693 389.843L718.297 389.571L739.254 388.808C739.533 388.604 740.214 389.261 740.261 389.756L738.744 448.849C738.727 449.539 738.533 450.615 738.282 451.011C737.972 451.509 736.635 451.798 735.761 451.767L651.939 449.011L527.965 444.863L338.56 437.819L264.622 435.18L28.0997 427.127L29.4011 382.874L42.8277 382.864L59.1687 383.433L57.3688 363.522C53.3093 362.771 50.9591 361.088 48.1006 359.186C42.5934 355.521 38.9069 350.91 35.2654 345.383L30.8301 339.976L31.6002 313.65L31.9288 312.437C31.9943 312.2 32.7902 312.757 33.0113 312.921L44.0559 328.848C47.443 332.38 49.6606 336.467 52.1565 340.676L55.1814 345.777L59.6381 351.406C61.5736 354.298 62.2888 357.631 60.5497 361.014L64.4484 382.578C64.7694 382.857 65.3513 383.374 65.5372 383.203L66.4094 382.396L71.762 364.693L75.0881 353.373L78.7696 343.264C80.3244 338.998 81.561 335.113 82.3345 330.673C82.5542 329.413 83.2937 327.374 83.1817 325.946L81.8964 310.031L81.1356 297.3L79.9499 284.563L79.0547 280.822L78.0994 275.446L77.4912 267.693C77.3917 266.408 76.0841 266.438 75.7944 266.149C75.8242 266.175 76.5338 265.133 76.6019 264.834L76.2512 259.002L74.8065 250.198C74.6358 249.137 74.8474 248.505 74.6825 247.161L73.6664 238.855L74.6051 233.861C75.1445 231.308 75.5339 228.953 75.5221 226.321L76.4218 222.102L77.9657 212.709L78.5216 205.548C78.7386 202.754 79.4426 200.824 80.3599 198.226C81.0745 196.192 80.9417 193.217 81.861 191.007C83.4798 187.119 83.5417 182.895 83.7026 178.805L85.635 173.476L88.978 159.286C89.9625 155.101 90.2688 152.378 88.4066 148.485L83.3464 137.901L74.3135 120.155C73.3238 118.209 72.2163 116.283 70.5003 115.046L64.5755 110.765L59.8428 107.724C52.3989 102.942 45.5239 97.6721 38.5578 92.3738L39.1041 79.1865L39.399 77.4614C39.4491 77.1493 40.5206 78.3284 40.6146 78.4372C47.1206 83.106 53.4166 87.6426 59.4164 92.7706L64.8716 98.6826L75.7117 110.276L84.6067 120.221L95.8418 132.528L98.006 123.328L99.1473 117.331L100.395 111.284L100.675 109.916C100.729 109.653 101.704 110.2 101.584 110.435L100.966 111.629L101.786 113.943C99.4425 114.725 101.917 115.952 102.252 114.875L103.045 113.898C103.327 113.645 103.73 113.293 103.811 113.555L104.338 115.235L101.758 132.655L100.723 144.429C100.334 148.818 100.772 152.577 102.259 156.737L102.981 161.679L108.51 185.031C109.76 190.303 110.779 195.325 111.091 200.772L112.051 217.807L111.833 223.823L111.828 236.461L111.978 244.545L111.516 257.649L112.263 270.559L112.911 282.755C113.144 287.134 111.867 291.387 112.463 295.799L113.217 301.426L114.855 316.578C115.182 320.351 114.378 323.909 112.536 327.245C112.19 332.504 112.454 338.042 110.66 343.025L106.986 353.233C104.368 360.498 102.685 367.346 102.831 375.245C102.883 377.958 102.409 381.001 103.794 383.505C105.001 385.695 109.712 385.327 110.905 383.344L115.279 359.352L116.425 351.507L119.849 331.485L121.425 323.813L123.672 312.651L124.658 306.975L125.637 298.119L126.486 290.447L128.212 276.891L129.331 268.663L132.429 255.873L133.503 249.579L135.277 243.486L137.514 237.234L139.012 232.11L142.758 218.46L147.203 199.042L149.92 189.157L153.402 178.085L158.431 163.812C161.743 154.426 163.9 144.801 164.604 134.732C164.727 133.006 165.033 132.033 166.201 131.072L171.16 110.449L174.069 100.098C175.077 96.5176 176.508 93.1277 178.337 89.9519L182.546 82.6685C180.354 93.2537 174.426 102.873 173.668 113.778L172.236 134.494L172.161 139.759L172.044 146.15L171.894 150.58L171.24 169.062C169.196 174.705 169.015 180.416 171.141 185.946L169.814 210.438L167.757 244.455L166.562 260.739L165.885 267.858L165.092 275.52L164.282 281.986L163.278 290.835L162.323 305.385L161.821 310.12L160.332 323.742L159.973 328.878L159.249 333.315L156.651 353.772C155.957 359.226 157.215 364.597 155.208 369.792C153.422 374.424 154.056 379.091 155.932 383.964L167.451 384.341L175.038 384.576L177.718 384.597C177.989 384.596 178.845 384.448 179.056 384.284C179.374 384.039 179.484 383.329 179.646 382.553L172.25 356.275C169.243 353.954 167.773 351.144 167.629 347.41L167.392 341.374L167.443 335.35L168.209 324.704L168.683 313.51C168.814 310.706 168.705 308.182 169.307 305.317L171.3 295.802L172.615 285.272L174.584 270.629L177.709 255.783L179.978 249.631L183.838 235.309L191.54 204.316L203.014 151.196L209.822 123.572L213.086 107.179L215.709 101.264C217.336 102.701 216.962 104.256 216.725 106.23L215.724 114.438L214.215 122.705L209.809 147.879L208.162 157.822L207.379 164.221L203.232 182.555L200.66 192.946L199.231 193.095C199.019 192.851 197.848 194.459 198.159 194.978L199.556 197.347C200.691 200.951 199.781 205.262 198.794 209.09L187.723 252.116L184.522 267.31C183.936 270.089 183.884 273.05 184.179 275.848L184.328 277.259C184.367 277.649 185.779 277.629 185.918 277.265L186.933 274.535L190.9 267.149L197.768 250.6L200.132 246.289L204.592 236.866L213.915 220.563C223.437 203.911 233.601 188.118 244.415 172.266L251.654 161.654L253.897 158.453L257.95 153.11C258.067 152.955 258.755 152.146 258.771 152.344C258.795 152.641 258.98 153.967 258.851 154.233L255.626 160.991L247.292 176.793L224.601 219.795L216.196 237.986L205.366 260.774C203.993 263.662 203.323 266.24 202.316 269.352C197.454 284.352 194.032 299.236 190.632 314.502C189.141 321.185 185.677 327.324 181.665 332.416C180.252 334.21 178.884 334.652 179.929 337.345L182.155 343.108L185.881 353.038L189.189 360.64L191.605 366.861L195.552 376.375L199.179 384.003C199.304 384.261 200.122 384.856 200.307 384.716L201.523 383.794C200.835 380.401 200.037 376.541 198.827 373.254L195.367 363.878C193.311 358.307 192.434 352.675 191.952 346.604C191.861 345.417 190.56 342.805 190.801 341.62L192.85 331.663L198.74 309.694L202.868 299.382L204.31 295.456L209.877 284.189L211.876 279.609L217.157 265.932L226.49 244.589L237.005 223.42L241.227 215.231L243.139 210.525L250.593 196.311C255.393 187.155 259.973 178.218 265.748 169.608C269.352 164.24 271.268 158.123 274.331 152.454L276.076 149.22L277.067 149.237L277.824 153.188L283.837 151.163C281.391 154.066 277.261 152.961 276.703 158.131C275.993 164.694 274.473 170.76 272.586 177.052L268.388 191.07L262.207 211.012L257.228 229.649C255.376 236.571 254.033 243.113 253.259 250.184L251.708 264.395L251.002 272.615L250.122 281.475L248.969 298.938L248.598 304.209L247.26 323.142C245.863 342.886 243.08 362.036 239.173 381.538C238.853 383.126 239.8 385.958 240.983 386.531C243.911 387.943 246.477 387.602 249.246 387.695L256.722 387.938C260.986 388.075 264.772 388.297 269.139 388.34L276.264 388.414C277.644 388.429 280.211 387.029 281.621 386.318L288.563 372.114L288.413 364.751L287.879 349.872L287.123 337.178L286.648 323.788L284.358 296.98L281.948 278.671L274.508 230.006L273.662 218.848L273.144 199.676L273.922 183.917L274.31 176.946L278.925 177.961C280.585 178.327 281.734 179.861 282.064 181.674L284.126 192.92C286.243 204.47 287.64 215.86 288.733 227.595L290.384 245.355L290.395 252.792L291.362 270.844C293.248 284.941 293.926 298.605 294.351 312.857L294.957 333.037L294.911 342.696C294.88 349.824 294.664 356.667 296.346 364.39C299.425 355.999 300.8 347.24 301.135 338.326L301.353 332.451L301.455 318.105L301.151 308.259L300.725 298.099L302.188 298.191L303.344 308.573L304.924 335.862L305.678 341.908C306.491 338.27 307.264 334.858 307.344 331.522L307.964 304.099L305.885 289.759L304.202 278.862L303.763 273.655L303.04 264.111L302.702 255.932L302.64 246.053L301.524 207.97L301.492 193.735L300.854 177.091L300.489 155.3L300.38 142.892L300.297 130.442L300.972 109.133C301.123 104.408 299.581 99.6533 299.306 94.9342L298.829 86.7007L297.769 70.574L296.218 47.0943C295.727 39.6303 293.246 32.5996 290.729 25.5427L287.314 15.9832L287.267 14.1943C287.261 13.8983 288.073 14.3702 288.481 14.6277L290.555 19.0349L294.04 26.5148L301.533 54.1342L307.319 76.6903C308.25 80.3158 309.257 84.1602 309.205 87.8734C309.117 94.0251 310.551 99.2924 311.987 105.244C313.917 113.212 313.651 121.544 314.532 129.684L315.426 137.972L316.202 145.245L317.8 160.765L318.937 180.753L319.848 200.564L320.022 214.059L319.107 242.936L319.204 248.923L319.315 257.221L319.986 266.843L319.989 272.574L318.94 292.394L317.938 302.389C317.01 311.641 316.08 320.506 314.117 329.757C312.038 339.559 311.436 349.12 310.193 358.969L309.571 363.897L308.426 373.615C306.491 376.835 304.263 380.851 305.562 384.646L307.063 387.476L313.417 386.845C314.967 384.157 315.5 381.031 316.155 377.935L318.258 367.987L321.91 354.943L323.202 348.732L325.904 338.051L328.915 325.134L330.103 324.451C330.311 324.331 330.561 325.555 330.512 325.849L329.343 333.224L327.023 344.358L319.229 382.304C318.887 383.978 319.009 386.491 320.379 387.455C322.784 389.158 327.557 388.757 328.888 386.01C331.082 381.475 331.723 376.536 333.025 371.828L337.471 355.738L339.859 345.475L342.949 329.697L345.261 320.368L347.235 311.295L348.86 302.46L350.228 294.015L351.997 281.921L354.315 262.247L356.346 244.557C356.571 242.595 355.939 240.947 354.247 240.161L353.177 239.666C352.869 239.523 352.222 240.537 352.097 240.859L347.307 253.447C345.31 258.698 342.669 263.873 341.647 269.375L339.435 281.309L335.936 303.829C334.846 305.12 334.293 306.539 333.981 308.09L330.684 324.556C328.445 321.251 330.416 318.365 331.003 315.703L333.365 305.027L334.104 296.321L335.134 286.845L335.924 280.415L342.067 250.003L349.021 219.816L361.58 179.761L366.372 152.317L372.553 125.228L378.646 98.0547L380.551 91.3391L386.406 70.0647C387.275 69.3437 387.866 69.2023 387.928 69.7841L386.922 81.7505L385.655 96.9652L383.686 133.851L382.446 160.201C382.213 165.133 384.761 169.56 385.859 174.049L390.425 192.647L393.414 204.117L398.218 225.258L404.06 257.25L405.791 268.605L408.212 283.464L411.007 297.915L415.93 318.278C418.054 327.056 419.614 335.748 420.495 344.775C421.532 355.485 422.254 365.78 424.527 376.277C424.965 378.292 426.031 380.198 426.894 382.071C428.841 386.306 431.364 390.018 435.173 388.522C435.756 388.294 436.499 386.748 436.433 386.123L435.304 374.965L427.172 339.438L423.878 325.269L428.914 310.245L434.114 297.156L437.293 289.465C438.158 287.37 439.858 284.337 439.859 281.965L430.386 254.261C431.414 251.797 431.688 249.11 431.549 246.436L430.782 231.819L430.021 216.327C429.766 211.147 429.828 206.183 430.724 201.033L434.242 180.824L437.457 162.809L439.338 153.024L444.189 134.214L449.143 115.311L451.998 105.087L453.691 100.013C454.905 96.368 452.701 92.1094 450.879 89.0192L446.291 81.2523L440.158 71.5529L435.636 65.4278L435.58 64.723L434.788 63.9377L434.309 63.4615L432.981 61.0577C433.459 61.2689 434.522 62.2012 434.778 62.705L435.148 63.4231L435.928 64.06L436.508 64.485L436.478 64.4714ZM451.569 252.965C453.063 249.11 454.769 245.479 455.354 241.56C455.751 238.897 454.28 235.495 454.336 232.731L454.687 215.869L454.228 195.418C454.395 189.436 454.296 183.775 453.474 177.72L458.184 151.924L458.944 144.877L459.825 134.864C460.051 132.274 460.206 129.797 459.909 127.191C459.476 123.321 459.918 120.013 457.091 116.35L454.413 125.602C452.687 131.574 452.793 136.939 453.452 143.042C453.917 147.332 452.166 152.027 451.478 156.335L446.856 185.148L445.719 193.369L444.449 203.284C442.738 211.536 441.002 219.497 441.31 227.946C439.896 231.798 438.826 235.672 438.405 239.641C440.993 246.756 442.764 253.393 444.106 260.702C444.446 262.565 445.491 264.507 446.602 265.774L451.568 252.971L451.569 252.965ZM543.415 171.327C544.2 169.228 543.964 166.649 542.271 164.728L541.331 176.882L543.415 171.327ZM654.312 361.863L655.33 353.089C655.803 342.795 656.503 333.108 658.598 323.067L662.278 305.434L666.803 284.572L669.762 271.012L673.724 252.966L679.453 229.154L680.459 223.448L676.534 204.816L674.251 191.077L670.708 173.182L667.065 189.812C663.605 205.587 660.63 221.136 659.097 237.251L658.466 243.848L657.322 270.873L657.41 277.507L657.916 290.456L653.881 324.907L651.238 341.628L648.239 356.424C646.891 363.083 646.188 368.772 649.8 366.54L652.077 362.841L652.166 368.304C654.097 366.211 654.025 364.408 654.317 361.87L654.312 361.863ZM416.385 370.948C417.169 373.822 418.678 375.894 421.087 377.623L419.158 368.909C417.203 360.089 416.126 351.466 413.499 342.803C412.342 338.977 411.129 335.185 410.804 331.222C410.336 325.527 409.626 320.334 408.281 314.707L406.157 309.57L403.481 300.159L403.277 295.659L400.373 278.98L395.965 258.533C392.767 247.036 392.734 235.309 390.644 223.692L384.163 187.748L381.545 172.012C379.418 173.955 379.742 175.903 379.349 178.043C378.771 181.211 378.655 183.96 379.141 187.037C380.755 197.228 378.39 211.312 381.179 222.256L384.329 234.602L387.029 245.185L392.632 259.822C395.685 266.298 397.47 272.307 398.487 279.423L399.338 285.387L402.613 304.941L406.33 326.571L407.75 333.933L410.929 350.963L416.385 370.954L416.385 370.948ZM555.501 363.846L557.291 361.001C563.66 352.762 570.868 345.519 578.756 338.786C580.661 337.16 580.466 335.371 580.354 333.055L579.603 317.349L579.451 310.737L579.26 294.296L571.622 269.511L566.893 256.494L565.879 273.026L564.158 280.051L564.092 270.689L563.295 259.977C562.914 254.878 564.099 249.013 562.689 244.178L555.035 217.889L552.368 197.646C551.955 194.726 551.696 192.411 550.145 189.616L548.245 198.088L541.771 238.357C541.519 239.929 542.529 242.135 542.888 243.691L548.941 269.955L550.772 279.096L551.971 289.782C552.749 296.728 553.279 303.27 557.699 309.612L559.914 304.598L558.462 316.49L558.755 324.1C555.977 325.257 555.267 327.039 553.659 330.082L553.282 321.52C553.019 315.52 551.203 310.101 549.892 304.247L539.6 258.191C539.133 256.107 538.415 254.444 537.256 252.146C533.908 256.262 532.019 264.931 531.586 270.354L530.693 281.542L530.067 289.772L529.37 304.617L529.292 312.291L528.126 338.065L526.749 354.421L524.723 369.394L524.638 379.976C524.61 383.117 523.583 386.561 524.216 389.638C527.524 391.996 537.303 391.689 540.335 390.074C541.401 389.503 541.789 386.722 541.948 385.595L542.881 379.128L545.063 369.232L548.191 357.485C548.536 360.994 548.262 363.243 550.261 365.799L554.689 364.249C554.801 364.21 555.453 363.948 555.513 363.846L555.501 363.846ZM491.304 368.052C492.174 373.986 490.37 387.908 496.47 387.47L498.601 376.149L504.6 338.239L507.327 320.701C504.385 298.068 499.78 276.308 495.475 254.018L492.089 232.549L486.076 196.323C483.253 198.101 482.952 200.984 481.784 203.535L467.498 234.6L472.515 262.337L476.469 282.449L478.859 296.155L481.055 313.408C482.062 321.332 484.215 328.398 485.925 336.172L488.007 345.644L491.297 368.052L491.304 368.052ZM381.702 387.236C383.126 385.627 382.889 382.641 383.052 380.54L384.014 368.153C383.632 361.895 383.435 355.916 383.537 349.728L383.718 338.621L383.515 331.483L383.128 317.344L383.087 312.5L382.88 305.177L382.24 292.063L381.548 284.103L379.878 265.776L375.34 237.77L370.874 212.3C368.39 215.67 367.693 219.017 366.16 222.199C364.032 226.613 363.866 230.667 363.838 235.552L363.766 250.065L364.247 268.238L364.382 277.837L364.374 294.763L364.484 307.589L363.262 339.485L363.336 347.184L363.579 370.831L363.45 382.335C363.422 384.885 364.421 387.921 367.276 388.733C371.178 389.847 379.58 389.63 381.702 387.23L381.702 387.236ZM72.0204 383.903L81.0063 383.557C82.2716 383.506 85.0501 384.387 85.7178 382.444C89.1195 372.538 91.3627 362.639 93.4359 352.388L93.8511 337.495C94.0676 329.765 96.2081 322 97.3642 314.199L99.2708 301.334L100.724 286.38L100.925 282.217L102.013 266.409L103.501 255.147C103.882 252.255 103.225 249.43 102.927 246.589L102.318 240.741L101.718 236.279L100.698 227.209L100.242 220.073L98.5315 204.744C98.4734 204.224 97.3673 203.136 96.9525 203.328C94.1623 204.615 94.9363 209.324 94.5737 213.376L93.638 223.829C93.0527 230.373 95.6783 235.302 90.8154 241.153L89.9228 245.206C89.694 246.244 89.3113 248.588 89.433 249.641L89.919 254.023C90.4595 258.865 92.6101 263.805 91.8959 268.883L88.75 291.221L89.737 306.032L90.7481 317.073C91.1904 321.904 91.44 326.339 89.3565 330.724C84.4584 333.042 83.7271 337.799 82.2185 342.43L77.919 355.637L75.1301 364.891L71.4423 377.477C70.902 379.321 71.0984 382.25 72.0319 383.922L72.0204 383.903ZM138.401 368.877L140.146 353.72L141.528 338.553C141.089 329.865 142.213 321.65 143.359 313.066L144.073 307.711L144.911 298.541L148.624 267.176L149.005 260.661L150.268 250.615L153.271 227.298L154.036 219.419L155.216 207.256C154.763 206.911 154 206.299 153.967 206.359L153.373 207.573L151.978 212.572L146.546 238.708L145.428 244.156L142.808 257.57L136.94 289.46L127.382 340.696L123.449 366.642C123.021 369.47 122.193 371.271 121.014 373.951C119.93 376.407 120.303 380.391 120.453 383.552C122.366 384.927 125.393 384.907 127.864 384.759C130.087 384.625 132.296 384.99 134.377 384.024C135.552 383.477 135.836 380.402 136.11 379.169L138.401 368.871L138.401 368.877ZM219.046 386.582C220.774 386.649 222.616 384.909 222.908 383.683L226.674 367.958L227.932 351.043C226.452 342.927 227.845 335.351 229.505 327.307L236.615 292.838L244.007 258.406L249.707 230.021C250.637 225.396 252.028 221.339 252.31 216.434L242.177 235.999L229.163 263.81L216.363 292.516L199.054 336.036C196.888 341.489 196.526 345.387 198.307 351.051L204.525 370.816L207.119 382.602C207.346 383.634 208.287 386.163 209.345 386.202L219.034 386.569L219.046 386.582ZM482.009 388.484C483.105 388.069 483.361 384.943 483.238 383.761L482.302 374.886C482.349 358.067 480.614 340.396 475.868 324.138L470.374 305.316L464.434 283.505L459.662 265.847C458.905 263.042 458.636 260.664 457.081 257.536L448.806 275.412C449.339 284.935 452.365 294.238 455.628 303.329L459.138 313.121L462.862 329.064L464.315 334.61L469.373 353.253L476.997 384.181C477.544 386.404 479.016 389.621 482.003 388.484L482.009 388.484ZM523.861 287.476L524.717 280.648C525.303 275.984 525.848 271.269 525.151 266.329C521.806 271.252 523.905 276.683 523.51 281.805L523.028 288.075L523.701 288.917C523.824 289.076 523.805 287.923 523.861 287.47L523.861 287.476ZM611.125 384.262L609.424 387.48C609.082 388.125 610.304 389.969 611.174 390.382C613.657 391.553 618.031 391.276 620.021 389.253C621.463 385.747 621.765 381.662 622.242 377.973L624.494 360.588L628.298 334.507L634.412 299.121C635.154 294.84 635.081 291.614 633.629 287.492L629.516 275.777L624.157 286.937C622.535 290.319 622.457 293.045 622.595 296.766L622.937 306.146L622.648 321.415L623.178 331.598C623.589 339.496 623.621 347.304 622.101 355.126C620.436 357.619 617.77 360.482 616.717 363.389L611.704 377.293L611.119 384.255L611.125 384.262ZM355.15 374.195L357.679 358.128L358.676 347.665L358.979 332.804L359.073 325.802L359.16 319.225L358.97 309.74L358.793 300.256L358.86 287.757L358.664 279.437C357.955 280.171 357.693 280.832 357.532 281.878L351.482 319.966L345.632 347.081L340.322 367.572L334.613 384.958C334.598 386.923 335.781 388.089 337.55 388.207L342.515 388.54L348.19 388.534C351.092 388.528 353.373 386.745 353.776 383.934L355.156 374.189L355.15 374.195ZM455.249 391.116L470 390.237C471.847 390.124 473.54 390.011 474.898 388.652L469.869 368.161L461.764 346.104L453.53 321.873L443.619 292.42C443.476 292.001 442.921 291.146 442.56 291.229C442.199 291.312 441.396 291.944 441.192 292.391L437.541 300.487L430.165 320.273C429.032 323.318 428.383 327.142 429.182 330.392L435.625 356.611L438.833 371.806L442.091 386.381C445.346 391.725 448.799 391.514 455.242 391.128L455.249 391.116ZM87.3568 287.6L87.3281 287.987L87.3112 288.387L87.3071 288.775L87.3358 288.388L87.3527 287.988L87.3568 287.6ZM405.147 389.56L411.519 389.695L414.86 389.362C416.228 389.223 418.745 387.82 418.946 386.275C417.477 383.132 416.098 379.919 414.139 377.439C411.712 374.367 409.964 371.705 408.834 367.972L401.855 344.953L397.923 332.753L394.23 323.625L388.295 309.27C387.518 307.388 388.005 304.901 386.107 303.465C385.168 309.636 386.259 315.142 386.369 320.981L386.573 331.588C386.657 336.145 386.253 340.453 387.59 344.539C388.863 341.679 388.952 340.457 390.796 338.372C391.012 340.981 391.028 342.633 390.77 344.797L389.711 353.656L388.534 368.942L388.538 380.76C388.537 383.7 388.809 386.293 389.491 389.101L396.206 389.57L405.147 389.554L405.147 389.56ZM607.927 381.224C606.605 375.481 606.512 371.416 606.777 366.332L607.328 355.788L609.53 339.295L613.74 316.564C613.932 315.531 612.573 313.717 611.616 313.757C604.515 326.204 597.206 337.725 588.722 349.048L588.287 367.021L589.469 385.821C589.564 387.366 590.604 389.56 591.449 390.865C596.128 392.4 600.343 390.509 603.241 386.953L607.921 381.218L607.927 381.224ZM554.854 364.564L549.531 369.496C548.229 370.704 547.486 373.691 547.27 375.592L546.263 384.539C546.014 386.772 546.172 389.009 548.013 390.202C549.482 391.158 551.416 391.03 553.359 390.995L564.55 390.81L578.947 391.013C582.032 391.058 583.905 389.03 583.746 386.084L582.391 361.208L581.623 349.357C581.59 348.844 581.154 347.779 580.806 347.425C580.457 347.071 579.071 347.635 578.67 347.951L572.104 353.125C566.724 357.365 561.346 361.407 555.513 364.432L554.842 364.563L554.854 364.564ZM634.437 389.735L635.448 386.512L632.995 358.749C629.051 368.643 628.405 378.093 626.605 387.85C626.94 388.967 627.259 390.299 627.851 390.725C628.916 391.491 634.186 390.562 634.443 389.735L634.437 389.735ZM188.939 378.178L183.552 361.775L180.549 351.494C179.554 348.087 179.241 344.858 177.013 341.732C173.613 352.919 174.649 354.343 177.787 362.443L185.257 381.75C186.007 383.679 187.335 385.769 190.148 384.532C190.206 382.883 189.626 380.271 188.939 378.178ZM650.296 386.414L652.797 372.884C652.837 372.676 652.067 371.51 651.972 371.722L651.43 372.863L647.351 381.452L644.333 388.127C644.497 389.187 647.148 389.879 648.072 389.456C648.838 389.106 650.009 387.936 650.296 386.414ZM515.294 381.792C513.011 385.805 512.768 390.077 514.117 389.789C516.611 389.254 517.323 384.798 515.294 381.792Z" fill="black" style="mix-blend-mode:color-burn" shape-rendering="crispEdges"/>
</g>
<g filter="url(#filter1_d_371_10)">
<path d="M1140.14 70.4714L1143.22 74.0587C1149.65 81.5401 1154.78 89.1264 1159.04 98.1241C1160.98 97.3127 1161.82 96.689 1163.9 95.0582L1163.12 103.047C1162.91 105.146 1162.44 107.88 1162.78 109.916C1163.44 113.782 1165.44 117.398 1165.84 121.21L1167.73 139.319L1168.74 152.104L1167.95 174.554L1166.8 188.313C1166.44 192.654 1164.9 196.656 1165.29 201.306C1165.56 204.589 1163.35 208.402 1164.07 211.599L1166.75 223.629C1166.81 223.94 1167.38 224.827 1167.55 225.08C1167.72 225.334 1168.77 224.226 1168.94 223.852L1175.03 211.238L1179.11 203.888L1187.89 189.718L1184.34 170.787L1183.69 166.718L1180.83 151.34L1176.82 127.251L1175.82 118.632L1173.71 102.547L1170.02 75.7053L1167.11 57.6824C1166.78 55.6599 1166.91 53.5334 1167.94 52.1107L1181.11 100.562L1193.26 138.151L1198.53 157.241L1203.57 175.656L1206.84 188.512L1208.83 198.134C1210.93 203.578 1211.68 209.056 1213.05 214.734L1218.44 237.076L1222.73 251.103C1223.37 253.238 1223.58 255.014 1224.94 256.693L1230.17 237.629L1233.2 227.147C1233.51 226.094 1233.28 223.527 1233.11 222.479L1229.53 200.225L1229.75 190.721L1233.02 197.323C1233.22 197.72 1234.08 198.385 1234.45 198.468C1234.94 198.581 1235.46 197.352 1235.6 196.711L1238.05 185.176C1239.85 176.675 1240.91 168.501 1243.38 160.121L1242.68 154.601L1249.98 166.784C1253.38 157.753 1255.79 149.87 1260.34 141.541L1257.84 159.187L1254.79 180.826C1256.25 187.851 1258.35 194.57 1261.09 201.211L1265.12 214.641L1270.85 233.178C1272.68 239.103 1275.03 244.211 1275.49 250.565C1276.04 258.18 1280.95 264.315 1281.04 270.659C1281.05 272.12 1280.23 274.759 1280.68 276.171L1284.19 287.318L1287.85 298.564L1285.65 302.1L1288.16 330.007L1288.47 337.346L1289.39 338.519L1297.53 333.855C1297.62 338.332 1290.08 342.221 1290.52 347.797L1301.2 332.476C1304.29 328.029 1306.27 323.054 1307.76 317.935L1311.85 303.875L1307.84 288.252L1303.91 272.749C1302.21 266.059 1299.5 261.385 1294.86 256.296C1291.58 252.701 1290.47 246.868 1288.63 242.378L1282.03 226.264C1278.7 218.137 1276.18 210.273 1273.91 201.828L1263.98 172.67C1268.29 177.708 1269.6 183.789 1271.85 189.707L1275.35 198.888L1282.27 210.149L1296.92 235.114C1300 240.364 1308.32 244.414 1310.35 250.039L1314.07 260.32L1316.27 265.713L1319.55 272.913C1320.05 274.012 1321.28 276.338 1322.97 275.707C1324.08 275.008 1325.27 272.49 1326.07 271.223C1327.87 268.379 1328.28 265.858 1327.01 262.538L1283.56 148.933L1273.36 126.448L1262.82 93.5489C1261.4 89.1078 1260.7 85.1532 1260.86 80.428L1261.06 74.4968C1261.14 72.2265 1261.84 68.7807 1261.2 66.7636L1258.94 59.5634C1263.33 60.68 1262.54 64.5716 1263.49 67.4769L1266.45 76.5364L1268.04 91.1142C1270.72 103.046 1275.92 113.808 1281.31 124.665L1286.35 134.818L1295.68 153.587L1305.65 175.033L1309.97 188.044L1315.84 204.189L1321.67 216.457L1326.83 225.912C1327.66 230.544 1328.7 235.006 1330.69 239.336L1335.77 250.383C1336 250.886 1337.05 252.168 1337.37 251.843L1338.97 250.204C1338.92 250.202 1339.96 250.332 1340.25 250.369L1339.23 258.299C1338.57 263.441 1341.69 268.564 1342.78 273.552C1343.79 278.154 1344.78 281.893 1346.63 286.173L1347.97 280.648L1350.52 270.558L1357.32 242.072L1363.13 216.963L1369.41 189.81L1373.13 172.813L1367.86 137.599C1365.48 121.632 1362.62 106.267 1361.55 90.1214C1361.37 87.3593 1361.33 85.0843 1362.19 82.0647C1363.55 86.7678 1361.93 90.5812 1364.71 97.4335L1376.45 126.373L1386.7 154.411L1391.85 170.125L1395.83 184.472L1396.08 193.25L1395.74 212.534L1395.54 230.844L1395.61 243.281L1395.75 255.524L1395.26 277.161C1395.2 279.444 1395.43 281.629 1395 283.847L1391.91 299.835C1391.11 303.954 1391.02 307.148 1390.88 311.517C1390.73 316.132 1389.99 322.447 1388.34 326.727C1386.28 332.031 1383.77 335.887 1383.73 341.856L1383.68 348.292C1381.26 355.417 1378.38 362.646 1379.65 370.377C1380.15 373.406 1381.14 377.021 1379.26 379.831C1376.81 383.492 1374.78 387.51 1375 392.017C1375.13 394.783 1377.5 396.091 1379.94 396.176C1385.94 396.393 1391.26 396.551 1397.22 394.918L1398.22 371.441L1403.41 356.041L1414.38 329.808L1421.26 312.952L1446.64 264.284C1446.79 264.106 1447.47 263.254 1447.48 263.464L1447.56 265.217L1446.64 292.991C1443.65 299.032 1441.12 304.883 1439.53 311.409L1434.6 320.079L1428.8 333.722C1427.28 337.299 1426.4 341.476 1424.16 344.659L1408.39 367.072C1405.95 370.537 1402.87 374.898 1403.13 379.179L1404.1 394.932C1405.95 396.545 1409.07 395.9 1411.36 395.843L1421.96 395.571L1442.92 394.808C1443.2 394.604 1443.88 395.261 1443.92 395.756L1442.41 454.849C1442.39 455.539 1442.2 456.615 1441.95 457.011C1441.63 457.509 1440.3 457.798 1439.42 457.767L1355.6 455.011L1231.63 450.863L1042.22 443.819L968.285 441.18L731.763 433.127L733.064 388.874L746.491 388.864L762.832 389.433L761.032 369.522C756.972 368.771 754.622 367.088 751.764 365.186C746.256 361.521 742.57 356.91 738.928 351.383L734.493 345.976L735.263 319.65L735.592 318.437C735.657 318.2 736.453 318.757 736.674 318.921L747.719 334.848C751.106 338.38 753.324 342.467 755.82 346.676L758.844 351.777L763.301 357.406C765.237 360.298 765.952 363.631 764.213 367.014L768.112 388.578C768.432 388.857 769.014 389.374 769.2 389.203L770.072 388.396L775.425 370.693L778.751 359.373L782.433 349.264C783.987 344.998 785.224 341.113 785.998 336.673C786.217 335.413 786.957 333.374 786.845 331.946L785.559 316.031L784.799 303.3L783.613 290.563L782.718 286.822L781.763 281.446L781.154 273.693C781.055 272.408 779.747 272.438 779.458 272.149C779.487 272.175 780.197 271.133 780.265 270.834L779.914 265.002L778.47 256.198C778.299 255.137 778.51 254.505 778.346 253.161L777.33 244.855L778.268 239.861C778.808 237.308 779.197 234.953 779.185 232.321L780.085 228.102L781.629 218.709L782.185 211.548C782.402 208.754 783.106 206.824 784.023 204.226C784.738 202.192 784.605 199.217 785.524 197.007C787.143 193.119 787.205 188.895 787.366 184.805L789.298 179.476L792.641 165.286C793.626 161.101 793.932 158.378 792.07 154.485L787.01 143.901L777.977 126.155C776.987 124.209 775.879 122.283 774.163 121.046L768.239 116.765L763.506 113.724C756.062 108.942 749.187 103.672 742.221 98.3738L742.767 85.1865L743.062 83.4614C743.112 83.1493 744.184 84.3284 744.278 84.4372C750.784 89.106 757.08 93.6426 763.08 98.7706L768.535 104.683L779.375 116.276L788.27 126.221L799.505 138.528L801.669 129.328L802.81 123.331L804.059 117.284L804.338 115.916C804.393 115.653 805.368 116.2 805.247 116.435L804.629 117.629L805.449 119.943C803.106 120.725 805.58 121.952 805.915 120.875L806.708 119.898C806.99 119.645 807.393 119.293 807.474 119.555L808.001 121.235L805.421 138.655L804.386 150.429C803.997 154.818 804.435 158.577 805.923 162.737L806.644 167.679L812.173 191.031C813.423 196.303 814.442 201.325 814.754 206.772L815.714 223.807L815.496 229.823L815.491 242.461L815.642 250.545L815.179 263.649L815.926 276.559L816.574 288.755C816.807 293.134 815.531 297.387 816.126 301.799L816.88 307.426L818.518 322.578C818.845 326.351 818.041 329.909 816.199 333.245C815.853 338.504 816.117 344.042 814.323 349.025L810.649 359.233C808.031 366.498 806.349 373.346 806.495 381.245C806.546 383.958 806.072 387.001 807.457 389.505C808.664 391.695 813.375 391.327 814.568 389.344L818.943 365.352L820.088 357.507L823.512 337.485L825.088 329.813L827.335 318.651L828.321 312.975L829.3 304.119L830.149 296.447L831.875 282.891L832.994 274.663L836.093 261.873L837.166 255.579L838.94 249.486L841.177 243.234L842.675 238.11L846.421 224.46L850.866 205.042L853.583 195.157L857.065 184.085L862.094 169.812C865.406 160.426 867.563 150.801 868.267 140.732C868.39 139.006 868.696 138.033 869.864 137.072L874.823 116.449L877.732 106.098C878.74 102.518 880.171 99.1277 882 95.9519L886.209 88.6685C884.017 99.2537 878.089 108.873 877.331 119.778L875.899 140.494L875.824 145.759L875.707 152.15L875.557 156.58L874.903 175.062C872.859 180.705 872.678 186.416 874.804 191.946L873.477 216.438L871.42 250.455L870.225 266.739L869.548 273.858L868.755 281.52L867.945 287.986L866.941 296.835L865.986 311.385L865.484 316.12L863.995 329.742L863.636 334.878L862.912 339.315L860.314 359.772C859.62 365.226 860.878 370.597 858.871 375.792C857.085 380.424 857.719 385.091 859.595 389.964L871.114 390.341L878.701 390.576L881.381 390.597C881.652 390.596 882.508 390.448 882.719 390.284C883.037 390.039 883.147 389.329 883.31 388.553L875.914 362.275C872.906 359.954 871.436 357.144 871.292 353.41L871.055 347.374L871.107 341.35L871.872 330.704L872.346 319.51C872.477 316.706 872.368 314.182 872.97 311.317L874.963 301.802L876.278 291.272L878.247 276.629L881.372 261.783L883.641 255.631L887.501 241.309L895.203 210.316L906.677 157.196L913.485 129.572L916.749 113.179L919.372 107.264C920.999 108.701 920.625 110.256 920.388 112.23L919.387 120.438L917.878 128.705L913.472 153.879L911.825 163.822L911.043 170.221L906.896 188.555L904.324 198.946L902.894 199.095C902.682 198.851 901.511 200.459 901.822 200.978L903.219 203.347C904.354 206.951 903.444 211.262 902.457 215.09L891.386 258.116L888.185 273.31C887.599 276.089 887.547 279.05 887.842 281.848L887.991 283.259C888.03 283.649 889.442 283.629 889.581 283.265L890.596 280.535L894.563 273.149L901.432 256.6L903.795 252.289L908.255 242.866L917.578 226.563C927.101 209.911 937.265 194.118 948.078 178.266L955.318 167.654L957.56 164.453L961.613 159.11C961.731 158.955 962.418 158.146 962.434 158.344C962.459 158.641 962.643 159.967 962.514 160.233L959.289 166.991L950.955 182.793L928.264 225.795L919.859 243.986L909.029 266.774C907.656 269.662 906.986 272.24 905.979 275.352C901.117 290.352 897.695 305.236 894.295 320.502C892.804 327.185 889.34 333.324 885.329 338.416C883.915 340.21 882.547 340.652 883.592 343.345L885.818 349.108L889.544 359.038L892.852 366.64L895.268 372.861L899.215 382.375L902.842 390.003C902.967 390.261 903.786 390.856 903.97 390.716L905.186 389.794C904.498 386.401 903.7 382.541 902.49 379.254L899.03 369.878C896.974 364.307 896.097 358.675 895.615 352.604C895.524 351.417 894.223 348.805 894.465 347.62L896.513 337.663L902.404 315.694L906.531 305.382L907.973 301.456L913.54 290.189L915.539 285.609L920.82 271.932L930.153 250.589L940.668 229.42L944.89 221.231L946.802 216.525L954.256 202.311C959.056 193.155 963.636 184.218 969.411 175.608C973.015 170.24 974.932 164.123 977.994 158.454L979.739 155.22L980.73 155.237L981.487 159.188L987.5 157.163C985.054 160.066 980.924 158.961 980.366 164.131C979.656 170.694 978.136 176.76 976.249 183.052L972.051 197.07L965.87 217.012L960.891 235.649C959.039 242.571 957.696 249.113 956.922 256.184L955.371 270.395L954.666 278.615L953.785 287.475L952.632 304.938L952.261 310.209L950.923 329.142C949.526 348.886 946.743 368.036 942.836 387.538C942.517 389.126 943.463 391.958 944.646 392.531C947.575 393.943 950.14 393.602 952.909 393.695L960.385 393.938C964.649 394.075 968.435 394.297 972.802 394.34L979.928 394.414C981.307 394.429 983.874 393.029 985.284 392.318L992.226 378.114L992.076 370.751L991.542 355.872L990.786 343.178L990.312 329.788L988.021 302.98L985.611 284.671L978.171 236.006L977.326 224.848L976.807 205.676L977.585 189.917L977.973 182.946L982.588 183.961C984.248 184.327 985.397 185.861 985.727 187.674L987.789 198.92C989.907 210.47 991.303 221.86 992.396 233.595L994.047 251.355L994.058 258.792L995.025 276.844C996.911 290.941 997.589 304.605 998.014 318.857L998.62 339.037L998.574 348.696C998.543 355.824 998.328 362.667 1000.01 370.39C1003.09 361.999 1004.46 353.24 1004.8 344.326L1005.02 338.451L1005.12 324.105L1004.81 314.259L1004.39 304.099L1005.85 304.191L1007.01 314.573L1008.59 341.862L1009.34 347.908C1010.15 344.27 1010.93 340.858 1011.01 337.522L1011.63 310.099L1009.55 295.759L1007.86 284.862L1007.43 279.655L1006.7 270.111L1006.37 261.932L1006.3 252.053L1005.19 213.97L1005.16 199.735L1004.52 183.091L1004.15 161.3L1004.04 148.892L1003.96 136.442L1004.64 115.133C1004.79 110.408 1003.24 105.653 1002.97 100.934L1002.49 92.7007L1001.43 76.574L999.882 53.0943C999.391 45.6303 996.909 38.5996 994.393 31.5427L990.977 21.9832L990.93 20.1943C990.924 19.8983 991.736 20.3702 992.144 20.6277L994.218 25.0349L997.703 32.5148L1005.2 60.1342L1010.98 82.6903C1011.91 86.3158 1012.92 90.1602 1012.87 93.8734C1012.78 100.025 1014.21 105.292 1015.65 111.244C1017.58 119.212 1017.31 127.544 1018.2 135.684L1019.09 143.972L1019.87 151.245L1021.46 166.765L1022.6 186.753L1023.51 206.564L1023.68 220.059L1022.77 248.936L1022.87 254.923L1022.98 263.221L1023.65 272.843L1023.65 278.574L1022.6 298.394L1021.6 308.389C1020.67 317.641 1019.74 326.506 1017.78 335.757C1015.7 345.559 1015.1 355.12 1013.86 364.969L1013.23 369.897L1012.09 379.615C1010.15 382.835 1007.93 386.851 1009.23 390.646L1010.73 393.476L1017.08 392.845C1018.63 390.157 1019.16 387.031 1019.82 383.935L1021.92 373.987L1025.57 360.943L1026.87 354.732L1029.57 344.051L1032.58 331.134L1033.77 330.451C1033.97 330.331 1034.22 331.555 1034.17 331.849L1033.01 339.224L1030.69 350.358L1022.89 388.304C1022.55 389.978 1022.67 392.491 1024.04 393.455C1026.45 395.158 1031.22 394.757 1032.55 392.01C1034.75 387.475 1035.39 382.536 1036.69 377.828L1041.13 361.738L1043.52 351.475L1046.61 335.697L1048.92 326.368L1050.9 317.295L1052.52 308.46L1053.89 300.015L1055.66 287.921L1057.98 268.247L1060.01 250.557C1060.23 248.595 1059.6 246.947 1057.91 246.161L1056.84 245.666C1056.53 245.523 1055.89 246.537 1055.76 246.859L1050.97 259.447C1048.97 264.698 1046.33 269.873 1045.31 275.375L1043.1 287.309L1039.6 309.829C1038.51 311.12 1037.96 312.539 1037.64 314.09L1034.35 330.556C1032.11 327.251 1034.08 324.365 1034.67 321.703L1037.03 311.027L1037.77 302.321L1038.8 292.845L1039.59 286.415L1045.73 256.003L1052.68 225.816L1065.24 185.761L1070.04 158.317L1076.22 131.228L1082.31 104.055L1084.21 97.3391L1090.07 76.0647C1090.94 75.3437 1091.53 75.2023 1091.59 75.7841L1090.58 87.7505L1089.32 102.965L1087.35 139.851L1086.11 166.201C1085.88 171.133 1088.42 175.56 1089.52 180.049L1094.09 198.647L1097.08 210.117L1101.88 231.258L1107.72 263.25L1109.45 274.605L1111.87 289.464L1114.67 303.915L1119.59 324.278C1121.72 333.056 1123.28 341.748 1124.16 350.775C1125.2 361.485 1125.92 371.78 1128.19 382.277C1128.63 384.292 1129.69 386.198 1130.56 388.071C1132.5 392.306 1135.03 396.018 1138.84 394.522C1139.42 394.294 1140.16 392.748 1140.1 392.123L1138.97 380.965L1130.84 345.438L1127.54 331.269L1132.58 316.245L1137.78 303.156L1140.96 295.465C1141.82 293.37 1143.52 290.337 1143.52 287.965L1134.05 260.261C1135.08 257.797 1135.35 255.11 1135.21 252.436L1134.44 237.819L1133.68 222.327C1133.43 217.147 1133.49 212.183 1134.39 207.033L1137.9 186.824L1141.12 168.809L1143 159.024L1147.85 140.214L1152.81 121.311L1155.66 111.087L1157.35 106.013C1158.57 102.368 1156.36 98.1094 1154.54 95.0192L1149.95 87.2523L1143.82 77.5529L1139.3 71.4278L1139.24 70.723L1138.45 69.9377L1137.97 69.4615L1136.64 67.0577C1137.12 67.2689 1138.19 68.2012 1138.44 68.705L1138.81 69.4231L1139.59 70.06L1140.17 70.485L1140.14 70.4714ZM1155.23 258.965C1156.73 255.11 1158.43 251.479 1159.02 247.56C1159.41 244.897 1157.94 241.495 1158 238.731L1158.35 221.869L1157.89 201.418C1158.06 195.436 1157.96 189.775 1157.14 183.72L1161.85 157.924L1162.61 150.877L1163.49 140.864C1163.71 138.274 1163.87 135.797 1163.57 133.191C1163.14 129.321 1163.58 126.013 1160.75 122.35L1158.08 131.602C1156.35 137.574 1156.46 142.939 1157.12 149.042C1157.58 153.332 1155.83 158.027 1155.14 162.335L1150.52 191.148L1149.38 199.369L1148.11 209.284C1146.4 217.536 1144.67 225.497 1144.97 233.946C1143.56 237.798 1142.49 241.672 1142.07 245.641C1144.66 252.756 1146.43 259.393 1147.77 266.702C1148.11 268.565 1149.15 270.507 1150.27 271.774L1155.23 258.971L1155.23 258.965ZM1247.08 177.327C1247.86 175.228 1247.63 172.649 1245.93 170.728L1244.99 182.882L1247.08 177.327ZM1357.97 367.863L1358.99 359.089C1359.47 348.795 1360.17 339.108 1362.26 329.067L1365.94 311.434L1370.47 290.572L1373.43 277.012L1377.39 258.966L1383.12 235.154L1384.12 229.448L1380.2 210.816L1377.91 197.077L1374.37 179.182L1370.73 195.812C1367.27 211.587 1364.29 227.136 1362.76 243.251L1362.13 249.848L1360.98 276.873L1361.07 283.507L1361.58 296.456L1357.54 330.907L1354.9 347.628L1351.9 362.424C1350.55 369.083 1349.85 374.772 1353.46 372.54L1355.74 368.841L1355.83 374.304C1357.76 372.211 1357.69 370.408 1357.98 367.87L1357.97 367.863ZM1120.05 376.948C1120.83 379.822 1122.34 381.894 1124.75 383.623L1122.82 374.909C1120.87 366.089 1119.79 357.466 1117.16 348.803C1116.01 344.977 1114.79 341.185 1114.47 337.222C1114 331.527 1113.29 326.334 1111.94 320.707L1109.82 315.57L1107.14 306.159L1106.94 301.659L1104.04 284.98L1099.63 264.533C1096.43 253.036 1096.4 241.309 1094.31 229.692L1087.83 193.748L1085.21 178.012C1083.08 179.955 1083.4 181.903 1083.01 184.043C1082.43 187.211 1082.32 189.96 1082.8 193.037C1084.42 203.228 1082.05 217.312 1084.84 228.256L1087.99 240.602L1090.69 251.185L1096.3 265.822C1099.35 272.298 1101.13 278.307 1102.15 285.423L1103 291.387L1106.28 310.941L1109.99 332.571L1111.41 339.933L1114.59 356.963L1120.05 376.954L1120.05 376.948ZM1259.16 369.846L1260.95 367.001C1267.32 358.762 1274.53 351.519 1282.42 344.786C1284.32 343.16 1284.13 341.371 1284.02 339.055L1283.27 323.349L1283.11 316.737L1282.92 300.296L1275.29 275.511L1270.56 262.494L1269.54 279.026L1267.82 286.051L1267.76 276.689L1266.96 265.977C1266.58 260.878 1267.76 255.013 1266.35 250.178L1258.7 223.889L1256.03 203.646C1255.62 200.726 1255.36 198.411 1253.81 195.616L1251.91 204.088L1245.43 244.357C1245.18 245.929 1246.19 248.135 1246.55 249.691L1252.6 275.955L1254.44 285.096L1255.63 295.782C1256.41 302.728 1256.94 309.27 1261.36 315.612L1263.58 310.598L1262.12 322.49L1262.42 330.1C1259.64 331.257 1258.93 333.039 1257.32 336.082L1256.95 327.52C1256.68 321.52 1254.87 316.101 1253.55 310.247L1243.26 264.191C1242.8 262.107 1242.08 260.444 1240.92 258.146C1237.57 262.262 1235.68 270.931 1235.25 276.354L1234.36 287.542L1233.73 295.772L1233.03 310.617L1232.95 318.291L1231.79 344.065L1230.41 360.421L1228.39 375.394L1228.3 385.976C1228.27 389.117 1227.25 392.561 1227.88 395.638C1231.19 397.996 1240.97 397.689 1244 396.074C1245.06 395.503 1245.45 392.722 1245.61 391.595L1246.54 385.128L1248.73 375.232L1251.85 363.485C1252.2 366.994 1251.92 369.243 1253.92 371.799L1258.35 370.249C1258.46 370.21 1259.12 369.948 1259.18 369.846L1259.16 369.846ZM1194.97 374.052C1195.84 379.986 1194.03 393.908 1200.13 393.47L1202.26 382.149L1208.26 344.239L1210.99 326.701C1208.05 304.068 1203.44 282.308 1199.14 260.018L1195.75 238.549L1189.74 202.323C1186.92 204.101 1186.61 206.984 1185.45 209.535L1171.16 240.6L1176.18 268.337L1180.13 288.449L1182.52 302.155L1184.72 319.408C1185.73 327.332 1187.88 334.398 1189.59 342.172L1191.67 351.644L1194.96 374.052L1194.97 374.052ZM1085.37 393.236C1086.79 391.627 1086.55 388.641 1086.71 386.54L1087.68 374.153C1087.29 367.895 1087.1 361.916 1087.2 355.728L1087.38 344.621L1087.18 337.483L1086.79 323.344L1086.75 318.5L1086.54 311.177L1085.9 298.063L1085.21 290.103L1083.54 271.776L1079 243.77L1074.54 218.3C1072.05 221.67 1071.36 225.017 1069.82 228.199C1067.7 232.613 1067.53 236.667 1067.5 241.552L1067.43 256.065L1067.91 274.238L1068.05 283.837L1068.04 300.763L1068.15 313.589L1066.93 345.485L1067 353.184L1067.24 376.831L1067.11 388.335C1067.08 390.885 1068.08 393.921 1070.94 394.733C1074.84 395.847 1083.24 395.63 1085.37 393.23L1085.37 393.236ZM775.683 389.903L784.669 389.557C785.935 389.506 788.713 390.387 789.381 388.444C792.783 378.538 795.026 368.639 797.099 358.388L797.514 343.495C797.731 335.765 799.871 328 801.027 320.199L802.934 307.334L804.387 292.38L804.588 288.217L805.676 272.409L807.164 261.147C807.545 258.255 806.889 255.43 806.59 252.589L805.981 246.741L805.381 242.279L804.361 233.209L803.905 226.073L802.195 210.744C802.137 210.224 801.03 209.136 800.616 209.328C797.825 210.615 798.599 215.324 798.237 219.376L797.301 229.829C796.716 236.373 799.341 241.302 794.478 247.153L793.586 251.206C793.357 252.244 792.974 254.588 793.096 255.641L793.582 260.023C794.123 264.865 796.273 269.805 795.559 274.883L792.413 297.221L793.4 312.032L794.411 323.073C794.854 327.904 795.103 332.339 793.02 336.724C788.122 339.042 787.39 343.799 785.882 348.43L781.582 361.637L778.793 370.891L775.105 383.477C774.565 385.321 774.761 388.25 775.695 389.922L775.683 389.903ZM842.064 374.877L843.809 359.72L845.191 344.553C844.752 335.865 845.876 327.65 847.022 319.066L847.736 313.711L848.574 304.541L852.287 273.176L852.668 266.661L853.931 256.615L856.934 233.298L857.699 225.419L858.88 213.256C858.426 212.911 857.663 212.299 857.63 212.359L857.036 213.573L855.641 218.572L850.209 244.708L849.091 250.156L846.471 263.57L840.603 295.46L831.045 346.696L827.112 372.642C826.684 375.47 825.856 377.271 824.677 379.951C823.593 382.407 823.967 386.391 824.116 389.552C826.03 390.927 829.056 390.907 831.527 390.759C833.75 390.625 835.959 390.99 838.04 390.024C839.215 389.477 839.499 386.402 839.773 385.169L842.064 374.871L842.064 374.877ZM922.709 392.582C924.437 392.649 926.279 390.909 926.571 389.683L930.337 373.958L931.596 357.043C930.116 348.927 931.509 341.351 933.168 333.307L940.278 298.838L947.67 264.406L953.37 236.021C954.3 231.396 955.691 227.339 955.973 222.434L945.84 241.999L932.826 269.81L920.026 298.516L902.717 342.036C900.551 347.489 900.189 351.387 901.97 357.051L908.188 376.816L910.782 388.602C911.009 389.634 911.95 392.163 913.008 392.202L922.697 392.569L922.709 392.582ZM1185.67 394.484C1186.77 394.069 1187.02 390.943 1186.9 389.761L1185.96 380.886C1186.01 364.067 1184.28 346.396 1179.53 330.138L1174.04 311.316L1168.1 289.505L1163.32 271.847C1162.57 269.042 1162.3 266.664 1160.74 263.536L1152.47 281.412C1153 290.935 1156.03 300.238 1159.29 309.329L1162.8 319.121L1166.52 335.064L1167.98 340.61L1173.04 359.253L1180.66 390.181C1181.21 392.404 1182.68 395.621 1185.67 394.484L1185.67 394.484ZM1227.52 293.476L1228.38 286.648C1228.97 281.984 1229.51 277.269 1228.81 272.329C1225.47 277.252 1227.57 282.683 1227.17 287.805L1226.69 294.075L1227.36 294.917C1227.49 295.076 1227.47 293.923 1227.52 293.47L1227.52 293.476ZM1314.79 390.262L1313.09 393.48C1312.75 394.125 1313.97 395.969 1314.84 396.382C1317.32 397.553 1321.69 397.276 1323.68 395.253C1325.13 391.747 1325.43 387.662 1325.91 383.973L1328.16 366.588L1331.96 340.507L1338.07 305.121C1338.82 300.84 1338.74 297.614 1337.29 293.492L1333.18 281.777L1327.82 292.937C1326.2 296.319 1326.12 299.045 1326.26 302.766L1326.6 312.146L1326.31 327.415L1326.84 337.598C1327.25 345.496 1327.28 353.304 1325.76 361.126C1324.1 363.619 1321.43 366.482 1320.38 369.389L1315.37 383.293L1314.78 390.255L1314.79 390.262ZM1058.81 380.195L1061.34 364.128L1062.34 353.665L1062.64 338.804L1062.74 331.802L1062.82 325.225L1062.63 315.74L1062.46 306.256L1062.52 293.757L1062.33 285.437C1061.62 286.171 1061.36 286.832 1061.2 287.878L1055.15 325.966L1049.3 353.081L1043.99 373.572L1038.28 390.958C1038.26 392.923 1039.44 394.089 1041.21 394.207L1046.18 394.54L1051.85 394.534C1054.76 394.528 1057.04 392.745 1057.44 389.934L1058.82 380.189L1058.81 380.195ZM1158.91 397.116L1173.66 396.237C1175.51 396.124 1177.2 396.011 1178.56 394.652L1173.53 374.161L1165.43 352.104L1157.19 327.873L1147.28 298.42C1147.14 298.001 1146.58 297.146 1146.22 297.229C1145.86 297.312 1145.06 297.944 1144.86 298.391L1141.2 306.487L1133.83 326.273C1132.69 329.318 1132.05 333.142 1132.84 336.392L1139.29 362.611L1142.5 377.806L1145.75 392.381C1149.01 397.725 1152.46 397.514 1158.91 397.128L1158.91 397.116ZM791.02 293.6L790.991 293.987L790.974 294.387L790.97 294.775L790.999 294.388L791.016 293.988L791.02 293.6ZM1108.81 395.56L1115.18 395.695L1118.52 395.362C1119.89 395.223 1122.41 393.82 1122.61 392.275C1121.14 389.132 1119.76 385.919 1117.8 383.439C1115.37 380.367 1113.63 377.705 1112.5 373.972L1105.52 350.953L1101.59 338.753L1097.89 329.625L1091.96 315.27C1091.18 313.388 1091.67 310.901 1089.77 309.465C1088.83 315.636 1089.92 321.142 1090.03 326.981L1090.24 337.588C1090.32 342.145 1089.92 346.453 1091.25 350.539C1092.53 347.679 1092.61 346.457 1094.46 344.372C1094.68 346.981 1094.69 348.633 1094.43 350.797L1093.37 359.656L1092.2 374.942L1092.2 386.76C1092.2 389.7 1092.47 392.293 1093.15 395.101L1099.87 395.57L1108.81 395.554L1108.81 395.56ZM1311.59 387.224C1310.27 381.481 1310.18 377.416 1310.44 372.332L1310.99 361.788L1313.19 345.295L1317.4 322.564C1317.59 321.531 1316.24 319.717 1315.28 319.757C1308.18 332.204 1300.87 343.725 1292.39 355.048L1291.95 373.021L1293.13 391.821C1293.23 393.366 1294.27 395.56 1295.11 396.865C1299.79 398.4 1304.01 396.509 1306.9 392.953L1311.58 387.218L1311.59 387.224ZM1258.52 370.564L1253.19 375.496C1251.89 376.704 1251.15 379.691 1250.93 381.592L1249.93 390.539C1249.68 392.772 1249.84 395.009 1251.68 396.202C1253.15 397.158 1255.08 397.03 1257.02 396.995L1268.21 396.81L1282.61 397.013C1285.69 397.058 1287.57 395.03 1287.41 392.084L1286.05 367.208L1285.29 355.357C1285.25 354.844 1284.82 353.779 1284.47 353.425C1284.12 353.071 1282.73 353.635 1282.33 353.951L1275.77 359.125C1270.39 363.365 1265.01 367.407 1259.18 370.432L1258.5 370.563L1258.52 370.564ZM1338.1 395.735L1339.11 392.512L1336.66 364.749C1332.71 374.643 1332.07 384.093 1330.27 393.85C1330.6 394.967 1330.92 396.299 1331.51 396.725C1332.58 397.491 1337.85 396.562 1338.11 395.735L1338.1 395.735ZM892.602 384.178L887.215 367.775L884.212 357.494C883.217 354.087 882.904 350.858 880.676 347.732C877.276 358.919 878.312 360.343 881.45 368.443L888.92 387.75C889.67 389.679 890.999 391.769 893.811 390.532C893.869 388.883 893.289 386.271 892.602 384.178ZM1353.96 392.414L1356.46 378.884C1356.5 378.676 1355.73 377.51 1355.63 377.722L1355.09 378.863L1351.01 387.452L1348 394.127C1348.16 395.187 1350.81 395.879 1351.73 395.456C1352.5 395.106 1353.67 393.936 1353.96 392.414ZM1218.96 387.792C1216.67 391.805 1216.43 396.077 1217.78 395.789C1220.27 395.254 1220.99 390.798 1218.96 387.792Z" fill="black" style="mix-blend-mode:color-burn" shape-rendering="crispEdges"/>
</g>
<g filter="url(#filter2_d_371_10)">
<path d="M1849.15 75.4714L1852.23 79.0587C1858.66 86.5401 1863.79 94.1264 1868.05 103.124C1869.98 102.313 1870.82 101.689 1872.91 100.058L1872.13 108.047C1871.92 110.146 1871.45 112.88 1871.79 114.916C1872.45 118.782 1874.45 122.398 1874.85 126.21L1876.74 144.319L1877.75 157.104L1876.96 179.554L1875.81 193.313C1875.45 197.654 1873.91 201.656 1874.3 206.306C1874.57 209.589 1872.36 213.402 1873.07 216.599L1875.76 228.629C1875.82 228.94 1876.39 229.827 1876.56 230.08C1876.72 230.334 1877.78 229.226 1877.95 228.852L1884.04 216.238L1888.12 208.888L1896.9 194.718L1893.35 175.787L1892.7 171.718L1889.83 156.34L1885.83 132.251L1884.83 123.632L1882.71 107.547L1879.03 80.7053L1876.12 62.6824C1875.79 60.6599 1875.92 58.5334 1876.95 57.1107L1890.12 105.562L1902.27 143.151L1907.54 162.241L1912.58 180.656L1915.85 193.512L1917.83 203.134C1919.94 208.578 1920.69 214.056 1922.05 219.734L1927.45 242.076L1931.73 256.103C1932.38 258.238 1932.58 260.014 1933.94 261.693L1939.18 242.629L1942.21 232.147C1942.52 231.094 1942.29 228.527 1942.12 227.479L1938.54 205.225L1938.76 195.721L1942.03 202.323C1942.23 202.72 1943.09 203.385 1943.46 203.468C1943.95 203.581 1944.47 202.352 1944.6 201.711L1947.05 190.176C1948.85 181.675 1949.92 173.501 1952.38 165.121L1951.69 159.601L1958.99 171.784C1962.39 162.753 1964.8 154.87 1969.35 146.541L1966.85 164.187L1963.79 185.826C1965.26 192.851 1967.36 199.57 1970.1 206.211L1974.12 219.641L1979.86 238.178C1981.69 244.103 1984.04 249.211 1984.5 255.565C1985.05 263.18 1989.96 269.315 1990.04 275.659C1990.06 277.12 1989.24 279.759 1989.69 281.171L1993.2 292.318L1996.86 303.564L1994.66 307.1L1997.17 335.007L1997.48 342.346L1998.4 343.519L2006.54 338.855C2006.63 343.332 1999.09 347.221 1999.53 352.797L2010.21 337.476C2013.3 333.029 2015.27 328.054 2016.77 322.935L2020.86 308.875L2016.85 293.252L2012.91 277.749C2011.21 271.059 2008.5 266.385 2003.86 261.296C2000.59 257.701 1999.47 251.868 1997.64 247.378L1991.04 231.264C1987.71 223.137 1985.18 215.273 1982.92 206.828L1972.99 177.67C1977.3 182.708 1978.6 188.789 1980.86 194.707L1984.36 203.888L1991.28 215.149L2005.92 240.114C2009.01 245.364 2017.33 249.414 2019.36 255.039L2023.08 265.32L2025.28 270.713L2028.56 277.913C2029.06 279.012 2030.29 281.338 2031.98 280.707C2033.09 280.008 2034.28 277.49 2035.08 276.223C2036.88 273.379 2037.29 270.858 2036.02 267.538L1992.57 153.933L1982.37 131.448L1971.83 98.5489C1970.41 94.1078 1969.71 90.1532 1969.87 85.428L1970.07 79.4968C1970.15 77.2265 1970.84 73.7807 1970.21 71.7636L1967.94 64.5634C1972.34 65.68 1971.55 69.5716 1972.5 72.4769L1975.46 81.5364L1977.05 96.1142C1979.73 108.046 1984.93 118.808 1990.31 129.665L1995.35 139.818L2004.69 158.587L2014.66 180.033L2018.98 193.044L2024.84 209.189L2030.68 221.457L2035.84 230.912C2036.67 235.544 2037.71 240.006 2039.7 244.336L2044.78 255.383C2045.01 255.886 2046.05 257.168 2046.38 256.843L2047.97 255.204C2047.93 255.202 2048.97 255.332 2049.26 255.369L2048.24 263.299C2047.58 268.441 2050.7 273.564 2051.79 278.552C2052.8 283.154 2053.78 286.893 2055.64 291.173L2056.98 285.648L2059.53 275.558L2066.33 247.072L2072.14 221.963L2078.42 194.81L2082.13 177.813L2076.87 142.599C2074.49 126.632 2071.62 111.267 2070.56 95.1214C2070.37 92.3593 2070.34 90.0843 2071.2 87.0647C2072.56 91.7678 2070.94 95.5812 2073.72 102.433L2085.46 131.373L2095.7 159.411L2100.86 175.125L2104.84 189.472L2105.09 198.25L2104.75 217.534L2104.55 235.844L2104.62 248.281L2104.76 260.524L2104.26 282.161C2104.21 284.444 2104.44 286.629 2104 288.847L2100.92 304.835C2100.12 308.954 2100.02 312.148 2099.89 316.517C2099.74 321.132 2099 327.447 2097.35 331.727C2095.29 337.031 2092.78 340.887 2092.74 346.856L2092.69 353.292C2090.26 360.417 2087.39 367.646 2088.66 375.377C2089.16 378.406 2090.15 382.021 2088.27 384.831C2085.82 388.492 2083.78 392.51 2084.01 397.017C2084.14 399.783 2086.51 401.091 2088.95 401.176C2094.94 401.393 2100.27 401.551 2106.23 399.918L2107.23 376.441L2112.41 361.041L2123.39 334.808L2130.26 317.952L2155.65 269.284C2155.8 269.106 2156.48 268.254 2156.49 268.464L2156.57 270.217L2155.65 297.991C2152.66 304.032 2150.13 309.883 2148.54 316.409L2143.61 325.079L2137.81 338.722C2136.29 342.299 2135.4 346.476 2133.17 349.659L2117.4 372.072C2114.96 375.537 2111.88 379.898 2112.14 384.179L2113.11 399.932C2114.96 401.545 2118.08 400.9 2120.36 400.843L2130.97 400.571L2151.92 399.808C2152.2 399.604 2152.89 400.261 2152.93 400.756L2151.41 459.849C2151.4 460.539 2151.2 461.615 2150.95 462.011C2150.64 462.509 2149.31 462.798 2148.43 462.767L2064.61 460.011L1940.64 455.863L1751.23 448.819L1677.29 446.18L1440.77 438.127L1442.07 393.874L1455.5 393.864L1471.84 394.433L1470.04 374.522C1465.98 373.771 1463.63 372.088 1460.77 370.186C1455.26 366.521 1451.58 361.91 1447.94 356.383L1443.5 350.976L1444.27 324.65L1444.6 323.437C1444.67 323.2 1445.46 323.757 1445.68 323.921L1456.73 339.848C1460.11 343.38 1462.33 347.467 1464.83 351.676L1467.85 356.777L1472.31 362.406C1474.24 365.298 1474.96 368.631 1473.22 372.014L1477.12 393.578C1477.44 393.857 1478.02 394.374 1478.21 394.203L1479.08 393.396L1484.43 375.693L1487.76 364.373L1491.44 354.264C1493 349.998 1494.23 346.113 1495.01 341.673C1495.23 340.413 1495.96 338.374 1495.85 336.946L1494.57 321.031L1493.81 308.3L1492.62 295.563L1491.73 291.822L1490.77 286.446L1490.16 278.693C1490.06 277.408 1488.76 277.438 1488.47 277.149C1488.5 277.175 1489.2 276.133 1489.27 275.834L1488.92 270.002L1487.48 261.198C1487.31 260.137 1487.52 259.505 1487.35 258.161L1486.34 249.855L1487.28 244.861C1487.82 242.308 1488.2 239.953 1488.19 237.321L1489.09 233.102L1490.64 223.709L1491.19 216.548C1491.41 213.754 1492.11 211.824 1493.03 209.226C1493.75 207.192 1493.61 204.217 1494.53 202.007C1496.15 198.119 1496.21 193.895 1496.37 189.805L1498.31 184.476L1501.65 170.286C1502.63 166.101 1502.94 163.378 1501.08 159.485L1496.02 148.901L1486.98 131.155C1485.99 129.209 1484.89 127.283 1483.17 126.046L1477.25 121.765L1472.51 118.724C1465.07 113.942 1458.19 108.672 1451.23 103.374L1451.77 90.1865L1452.07 88.4614C1452.12 88.1493 1453.19 89.3284 1453.29 89.4372C1459.79 94.106 1466.09 98.6426 1472.09 103.771L1477.54 109.683L1488.38 121.276L1497.28 131.221L1508.51 143.528L1510.68 134.328L1511.82 128.331L1513.07 122.284L1513.35 120.916C1513.4 120.653 1514.38 121.2 1514.25 121.435L1513.64 122.629L1514.46 124.943C1512.11 125.725 1514.59 126.952 1514.92 125.875L1515.72 124.898C1516 124.645 1516.4 124.293 1516.48 124.555L1517.01 126.235L1514.43 143.655L1513.39 155.429C1513 159.818 1513.44 163.577 1514.93 167.737L1515.65 172.679L1521.18 196.031C1522.43 201.303 1523.45 206.325 1523.76 211.772L1524.72 228.807L1524.5 234.823L1524.5 247.461L1524.65 255.545L1524.19 268.649L1524.93 281.559L1525.58 293.755C1525.82 298.134 1524.54 302.387 1525.13 306.799L1525.89 312.426L1527.53 327.578C1527.85 331.351 1527.05 334.909 1525.21 338.245C1524.86 343.504 1525.13 349.042 1523.33 354.025L1519.66 364.233C1517.04 371.498 1515.36 378.346 1515.5 386.245C1515.55 388.958 1515.08 392.001 1516.46 394.505C1517.67 396.695 1522.38 396.327 1523.58 394.344L1527.95 370.352L1529.1 362.507L1532.52 342.485L1534.1 334.813L1536.34 323.651L1537.33 317.975L1538.31 309.119L1539.16 301.447L1540.88 287.891L1542 279.663L1545.1 266.873L1546.17 260.579L1547.95 254.486L1550.18 248.234L1551.68 243.11L1555.43 229.46L1559.87 210.042L1562.59 200.157L1566.07 189.085L1571.1 174.812C1574.41 165.426 1576.57 155.801 1577.27 145.732C1577.4 144.006 1577.7 143.033 1578.87 142.072L1583.83 121.449L1586.74 111.098C1587.75 107.518 1589.18 104.128 1591.01 100.952L1595.22 93.6685C1593.02 104.254 1587.1 113.873 1586.34 124.778L1584.91 145.494L1584.83 150.759L1584.72 157.15L1584.56 161.58L1583.91 180.062C1581.87 185.705 1581.69 191.416 1583.81 196.946L1582.48 221.438L1580.43 255.455L1579.23 271.739L1578.56 278.858L1577.76 286.52L1576.95 292.986L1575.95 301.835L1574.99 316.385L1574.49 321.12L1573 334.742L1572.64 339.878L1571.92 344.315L1569.32 364.772C1568.63 370.226 1569.89 375.597 1567.88 380.792C1566.09 385.424 1566.73 390.091 1568.6 394.964L1580.12 395.341L1587.71 395.576L1590.39 395.597C1590.66 395.596 1591.52 395.448 1591.73 395.284C1592.04 395.039 1592.16 394.329 1592.32 393.553L1584.92 367.275C1581.91 364.954 1580.44 362.144 1580.3 358.41L1580.06 352.374L1580.11 346.35L1580.88 335.704L1581.35 324.51C1581.48 321.706 1581.38 319.182 1581.98 316.317L1583.97 306.802L1585.29 296.272L1587.26 281.629L1590.38 266.783L1592.65 260.631L1596.51 246.309L1604.21 215.316L1615.69 162.196L1622.49 134.572L1625.76 118.179L1628.38 112.264C1630.01 113.701 1629.63 115.256 1629.4 117.23L1628.39 125.438L1626.89 133.705L1622.48 158.879L1620.83 168.822L1620.05 175.221L1615.9 193.555L1613.33 203.946L1611.9 204.095C1611.69 203.851 1610.52 205.459 1610.83 205.978L1612.23 208.347C1613.36 211.951 1612.45 216.262 1611.46 220.09L1600.39 263.116L1597.19 278.31C1596.61 281.089 1596.56 284.05 1596.85 286.848L1597 288.259C1597.04 288.649 1598.45 288.629 1598.59 288.265L1599.6 285.535L1603.57 278.149L1610.44 261.6L1612.8 257.289L1617.26 247.866L1626.59 231.563C1636.11 214.911 1646.27 199.118 1657.09 183.266L1664.33 172.654L1666.57 169.453L1670.62 164.11C1670.74 163.955 1671.43 163.146 1671.44 163.344C1671.47 163.641 1671.65 164.967 1671.52 165.233L1668.3 171.991L1659.96 187.793L1637.27 230.795L1628.87 248.986L1618.04 271.774C1616.66 274.662 1615.99 277.24 1614.99 280.352C1610.12 295.352 1606.7 310.236 1603.3 325.502C1601.81 332.185 1598.35 338.324 1594.34 343.416C1592.92 345.21 1591.56 345.652 1592.6 348.345L1594.83 354.108L1598.55 364.038L1601.86 371.64L1604.28 377.861L1608.22 387.375L1611.85 395.003C1611.97 395.261 1612.79 395.856 1612.98 395.716L1614.19 394.794C1613.51 391.401 1612.71 387.541 1611.5 384.254L1608.04 374.878C1605.98 369.307 1605.11 363.675 1604.62 357.604C1604.53 356.417 1603.23 353.805 1603.47 352.62L1605.52 342.663L1611.41 320.694L1615.54 310.382L1616.98 306.456L1622.55 295.189L1624.55 290.609L1629.83 276.932L1639.16 255.589L1649.68 234.42L1653.9 226.231L1655.81 221.525L1663.26 207.311C1668.06 198.155 1672.64 189.218 1678.42 180.608C1682.02 175.24 1683.94 169.123 1687 163.454L1688.75 160.22L1689.74 160.237L1690.49 164.188L1696.51 162.163C1694.06 165.066 1689.93 163.961 1689.37 169.131C1688.66 175.694 1687.14 181.76 1685.26 188.052L1681.06 202.07L1674.88 222.012L1669.9 240.649C1668.05 247.571 1666.7 254.113 1665.93 261.184L1664.38 275.395L1663.67 283.615L1662.79 292.475L1661.64 309.938L1661.27 315.209L1659.93 334.142C1658.53 353.886 1655.75 373.036 1651.84 392.538C1651.52 394.126 1652.47 396.958 1653.65 397.531C1656.58 398.943 1659.15 398.602 1661.92 398.695L1669.39 398.938C1673.66 399.075 1677.44 399.297 1681.81 399.34L1688.94 399.414C1690.31 399.429 1692.88 398.029 1694.29 397.318L1701.23 383.114L1701.08 375.751L1700.55 360.872L1699.79 348.178L1699.32 334.788L1697.03 307.98L1694.62 289.671L1687.18 241.006L1686.33 229.848L1685.81 210.676L1686.59 194.917L1686.98 187.946L1691.6 188.961C1693.26 189.327 1694.41 190.861 1694.74 192.674L1696.8 203.92C1698.91 215.47 1700.31 226.86 1701.4 238.595L1703.05 256.355L1703.07 263.792L1704.03 281.844C1705.92 295.941 1706.6 309.605 1707.02 323.857L1707.63 344.037L1707.58 353.696C1707.55 360.824 1707.34 367.667 1709.02 375.39C1712.1 366.999 1713.47 358.24 1713.81 349.326L1714.02 343.451L1714.13 329.105L1713.82 319.259L1713.4 309.099L1714.86 309.191L1716.01 319.573L1717.59 346.862L1718.35 352.908C1719.16 349.27 1719.94 345.858 1720.02 342.522L1720.63 315.099L1718.56 300.759L1716.87 289.862L1716.43 284.655L1715.71 275.111L1715.37 266.932L1715.31 257.053L1714.19 218.97L1714.16 204.735L1713.52 188.091L1713.16 166.3L1713.05 153.892L1712.97 141.442L1713.64 120.133C1713.79 115.408 1712.25 110.653 1711.98 105.934L1711.5 97.7007L1710.44 81.574L1708.89 58.0943C1708.4 50.6303 1705.92 43.5996 1703.4 36.5427L1699.99 26.9832L1699.94 25.1943C1699.93 24.8983 1700.74 25.3702 1701.15 25.6277L1703.23 30.0349L1706.71 37.5148L1714.2 65.1342L1719.99 87.6903C1720.92 91.3158 1721.93 95.1602 1721.88 98.8734C1721.79 105.025 1723.22 110.292 1724.66 116.244C1726.59 124.212 1726.32 132.544 1727.2 140.684L1728.1 148.972L1728.87 156.245L1730.47 171.765L1731.61 191.753L1732.52 211.564L1732.69 225.059L1731.78 253.936L1731.88 259.923L1731.99 268.221L1732.66 277.843L1732.66 283.574L1731.61 303.394L1730.61 313.389C1729.68 322.641 1728.75 331.506 1726.79 340.757C1724.71 350.559 1724.11 360.12 1722.86 369.969L1722.24 374.897L1721.1 384.615C1719.16 387.835 1716.93 391.851 1718.23 395.646L1719.73 398.476L1726.09 397.845C1727.64 395.157 1728.17 392.031 1728.83 388.935L1730.93 378.987L1734.58 365.943L1735.87 359.732L1738.57 349.051L1741.59 336.134L1742.77 335.451C1742.98 335.331 1743.23 336.555 1743.18 336.849L1742.01 344.224L1739.69 355.358L1731.9 393.304C1731.56 394.978 1731.68 397.491 1733.05 398.455C1735.45 400.158 1740.23 399.757 1741.56 397.01C1743.75 392.475 1744.39 387.536 1745.7 382.828L1750.14 366.738L1752.53 356.475L1755.62 340.697L1757.93 331.368L1759.91 322.295L1761.53 313.46L1762.9 305.015L1764.67 292.921L1766.99 273.247L1769.02 255.557C1769.24 253.595 1768.61 251.947 1766.92 251.161L1765.85 250.666C1765.54 250.523 1764.89 251.537 1764.77 251.859L1759.98 264.447C1757.98 269.698 1755.34 274.873 1754.32 280.375L1752.11 292.309L1748.61 314.829C1747.52 316.12 1746.96 317.539 1746.65 319.09L1743.35 335.556C1741.12 332.251 1743.09 329.365 1743.67 326.703L1746.04 316.027L1746.77 307.321L1747.8 297.845L1748.59 291.415L1754.74 261.003L1761.69 230.816L1774.25 190.761L1779.04 163.317L1785.22 136.228L1791.32 109.055L1793.22 102.339L1799.08 81.0647C1799.95 80.3437 1800.54 80.2023 1800.6 80.7841L1799.59 92.7505L1798.33 107.965L1796.36 144.851L1795.12 171.201C1794.88 176.133 1797.43 180.56 1798.53 185.049L1803.1 203.647L1806.09 215.117L1810.89 236.258L1816.73 268.25L1818.46 279.605L1820.88 294.464L1823.68 308.915L1828.6 329.278C1830.72 338.056 1832.28 346.748 1833.17 355.775C1834.2 366.485 1834.93 376.78 1837.2 387.277C1837.64 389.292 1838.7 391.198 1839.57 393.071C1841.51 397.306 1844.03 401.018 1847.84 399.522C1848.43 399.294 1849.17 397.748 1849.1 397.123L1847.97 385.965L1839.84 350.438L1836.55 336.269L1841.58 321.245L1846.79 308.156L1849.96 300.465C1850.83 298.37 1852.53 295.337 1852.53 292.965L1843.06 265.261C1844.09 262.797 1844.36 260.11 1844.22 257.436L1843.45 242.819L1842.69 227.327C1842.44 222.147 1842.5 217.183 1843.39 212.033L1846.91 191.824L1850.13 173.809L1852.01 164.024L1856.86 145.214L1861.81 126.311L1864.67 116.087L1866.36 111.013C1867.58 107.368 1865.37 103.109 1863.55 100.019L1858.96 92.2523L1852.83 82.5529L1848.31 76.4278L1848.25 75.723L1847.46 74.9377L1846.98 74.4615L1845.65 72.0577C1846.13 72.2689 1847.19 73.2012 1847.45 73.705L1847.82 74.4231L1848.6 75.06L1849.18 75.485L1849.15 75.4714ZM1864.24 263.965C1865.73 260.11 1867.44 256.479 1868.03 252.56C1868.42 249.897 1866.95 246.495 1867.01 243.731L1867.36 226.869L1866.9 206.418C1867.07 200.436 1866.97 194.775 1866.15 188.72L1870.85 162.924L1871.62 155.877L1872.5 145.864C1872.72 143.274 1872.88 140.797 1872.58 138.191C1872.15 134.321 1872.59 131.013 1869.76 127.35L1867.08 136.602C1865.36 142.574 1865.46 147.939 1866.12 154.042C1866.59 158.332 1864.84 163.027 1864.15 167.335L1859.53 196.148L1858.39 204.369L1857.12 214.284C1855.41 222.536 1853.67 230.497 1853.98 238.946C1852.57 242.798 1851.5 246.672 1851.08 250.641C1853.66 257.756 1855.43 264.393 1856.78 271.702C1857.12 273.565 1858.16 275.507 1859.27 276.774L1864.24 263.971L1864.24 263.965ZM1956.09 182.327C1956.87 180.228 1956.63 177.649 1954.94 175.728L1954 187.882L1956.09 182.327ZM2066.98 372.863L2068 364.089C2068.47 353.795 2069.17 344.108 2071.27 334.067L2074.95 316.434L2079.47 295.572L2082.43 282.012L2086.4 263.966L2092.12 240.154L2093.13 234.448L2089.21 215.816L2086.92 202.077L2083.38 184.182L2079.74 200.812C2076.28 216.587 2073.3 232.136 2071.77 248.251L2071.14 254.848L2069.99 281.873L2070.08 288.507L2070.59 301.456L2066.55 335.907L2063.91 352.628L2060.91 367.424C2059.56 374.083 2058.86 379.772 2062.47 377.54L2064.75 373.841L2064.84 379.304C2066.77 377.211 2066.7 375.408 2066.99 372.87L2066.98 372.863ZM1829.06 381.948C1829.84 384.822 1831.35 386.894 1833.76 388.623L1831.83 379.909C1829.87 371.089 1828.8 362.466 1826.17 353.803C1825.01 349.977 1823.8 346.185 1823.47 342.222C1823.01 336.527 1822.3 331.334 1820.95 325.707L1818.83 320.57L1816.15 311.159L1815.95 306.659L1813.04 289.98L1808.64 269.533C1805.44 258.036 1805.4 246.309 1803.32 234.692L1796.83 198.748L1794.22 183.012C1792.09 184.955 1792.41 186.903 1792.02 189.043C1791.44 192.211 1791.33 194.96 1791.81 198.037C1793.43 208.228 1791.06 222.312 1793.85 233.256L1797 245.602L1799.7 256.185L1805.3 270.822C1808.36 277.298 1810.14 283.307 1811.16 290.423L1812.01 296.387L1815.28 315.941L1819 337.571L1820.42 344.933L1823.6 361.963L1829.06 381.954L1829.06 381.948ZM1968.17 374.846L1969.96 372.001C1976.33 363.762 1983.54 356.519 1991.43 349.786C1993.33 348.16 1993.14 346.371 1993.03 344.055L1992.27 328.349L1992.12 321.737L1991.93 305.296L1984.29 280.511L1979.56 267.494L1978.55 284.026L1976.83 291.051L1976.76 281.689L1975.97 270.977C1975.58 265.878 1976.77 260.013 1975.36 255.178L1967.71 228.889L1965.04 208.646C1964.63 205.726 1964.37 203.411 1962.82 200.616L1960.92 209.088L1954.44 249.357C1954.19 250.929 1955.2 253.135 1955.56 254.691L1961.61 280.955L1963.44 290.096L1964.64 300.782C1965.42 307.728 1965.95 314.27 1970.37 320.612L1972.59 315.598L1971.13 327.49L1971.43 335.1C1968.65 336.257 1967.94 338.039 1966.33 341.082L1965.95 332.52C1965.69 326.52 1963.87 321.101 1962.56 315.247L1952.27 269.191C1951.8 267.107 1951.09 265.444 1949.93 263.146C1946.58 267.262 1944.69 275.931 1944.26 281.354L1943.36 292.542L1942.74 300.772L1942.04 315.617L1941.96 323.291L1940.8 349.065L1939.42 365.421L1937.39 380.394L1937.31 390.976C1937.28 394.117 1936.25 397.561 1936.89 400.638C1940.19 402.996 1949.97 402.689 1953.01 401.074C1954.07 400.503 1954.46 397.722 1954.62 396.595L1955.55 390.128L1957.73 380.232L1960.86 368.485C1961.21 371.994 1960.93 374.243 1962.93 376.799L1967.36 375.249C1967.47 375.21 1968.12 374.948 1968.18 374.846L1968.17 374.846ZM1903.97 379.052C1904.84 384.986 1903.04 398.908 1909.14 398.47L1911.27 387.149L1917.27 349.239L1920 331.701C1917.06 309.068 1912.45 287.308 1908.15 265.018L1904.76 243.549L1898.75 207.323C1895.92 209.101 1895.62 211.984 1894.45 214.535L1880.17 245.6L1885.19 273.337L1889.14 293.449L1891.53 307.155L1893.73 324.408C1894.73 332.332 1896.89 339.398 1898.6 347.172L1900.68 356.644L1903.97 379.052L1903.97 379.052ZM1794.37 398.236C1795.8 396.627 1795.56 393.641 1795.72 391.54L1796.68 379.153C1796.3 372.895 1796.11 366.916 1796.21 360.728L1796.39 349.621L1796.19 342.483L1795.8 328.344L1795.76 323.5L1795.55 316.177L1794.91 303.063L1794.22 295.103L1792.55 276.776L1788.01 248.77L1783.54 223.3C1781.06 226.67 1780.36 230.017 1778.83 233.199C1776.7 237.613 1776.54 241.667 1776.51 246.552L1776.44 261.065L1776.92 279.238L1777.05 288.837L1777.04 305.763L1777.15 318.589L1775.93 350.485L1776.01 358.184L1776.25 381.831L1776.12 393.335C1776.09 395.885 1777.09 398.921 1779.95 399.733C1783.85 400.847 1792.25 400.63 1794.37 398.23L1794.37 398.236ZM1484.69 394.903L1493.68 394.557C1494.94 394.506 1497.72 395.387 1498.39 393.444C1501.79 383.538 1504.03 373.639 1506.11 363.388L1506.52 348.495C1506.74 340.765 1508.88 333 1510.04 325.199L1511.94 312.334L1513.39 297.38L1513.6 293.217L1514.68 277.409L1516.17 266.147C1516.55 263.255 1515.9 260.43 1515.6 257.589L1514.99 251.741L1514.39 247.279L1513.37 238.209L1512.91 231.073L1511.2 215.744C1511.14 215.224 1510.04 214.136 1509.62 214.328C1506.83 215.615 1507.61 220.324 1507.24 224.376L1506.31 234.829C1505.72 241.373 1508.35 246.302 1503.49 252.153L1502.59 256.206C1502.36 257.244 1501.98 259.588 1502.1 260.641L1502.59 265.023C1503.13 269.865 1505.28 274.805 1504.57 279.883L1501.42 302.221L1502.41 317.032L1503.42 328.073C1503.86 332.904 1504.11 337.339 1502.03 341.724C1497.13 344.042 1496.4 348.799 1494.89 353.43L1490.59 366.637L1487.8 375.891L1484.11 388.477C1483.57 390.321 1483.77 393.25 1484.7 394.922L1484.69 394.903ZM1551.07 379.877L1552.82 364.72L1554.2 349.553C1553.76 340.865 1554.88 332.65 1556.03 324.066L1556.74 318.711L1557.58 309.541L1561.29 278.176L1561.68 271.661L1562.94 261.615L1565.94 238.298L1566.71 230.419L1567.89 218.256C1567.43 217.911 1566.67 217.299 1566.64 217.359L1566.04 218.573L1564.65 223.572L1559.22 249.708L1558.1 255.156L1555.48 268.57L1549.61 300.46L1540.05 351.696L1536.12 377.642C1535.69 380.47 1534.86 382.271 1533.68 384.951C1532.6 387.407 1532.97 391.391 1533.12 394.552C1535.04 395.927 1538.06 395.907 1540.53 395.759C1542.76 395.625 1544.97 395.99 1547.05 395.024C1548.22 394.477 1548.51 391.402 1548.78 390.169L1551.07 379.871L1551.07 379.877ZM1631.72 397.582C1633.44 397.649 1635.29 395.909 1635.58 394.683L1639.34 378.958L1640.6 362.043C1639.12 353.927 1640.52 346.351 1642.18 338.307L1649.29 303.838L1656.68 269.406L1662.38 241.021C1663.31 236.396 1664.7 232.339 1664.98 227.434L1654.85 246.999L1641.83 274.81L1629.03 303.516L1611.73 347.036C1609.56 352.489 1609.2 356.387 1610.98 362.051L1617.2 381.816L1619.79 393.602C1620.02 394.634 1620.96 397.163 1622.02 397.202L1631.7 397.569L1631.72 397.582ZM1894.68 399.484C1895.78 399.069 1896.03 395.943 1895.91 394.761L1894.97 385.886C1895.02 369.067 1893.28 351.396 1888.54 335.138L1883.05 316.316L1877.11 294.505L1872.33 276.847C1871.58 274.042 1871.31 271.664 1869.75 268.536L1861.48 286.412C1862.01 295.935 1865.04 305.238 1868.3 314.329L1871.81 324.121L1875.53 340.064L1876.99 345.61L1882.04 364.253L1889.67 395.181C1890.21 397.404 1891.69 400.621 1894.67 399.484L1894.68 399.484ZM1936.53 298.476L1937.39 291.648C1937.97 286.984 1938.52 282.269 1937.82 277.329C1934.48 282.252 1936.58 287.683 1936.18 292.805L1935.7 299.075L1936.37 299.917C1936.49 300.076 1936.48 298.923 1936.53 298.47L1936.53 298.476ZM2023.8 395.262L2022.09 398.48C2021.75 399.125 2022.98 400.969 2023.84 401.382C2026.33 402.553 2030.7 402.276 2032.69 400.253C2034.13 396.747 2034.44 392.662 2034.91 388.973L2037.17 371.588L2040.97 345.507L2047.08 310.121C2047.82 305.84 2047.75 302.614 2046.3 298.492L2042.19 286.777L2036.83 297.937C2035.21 301.319 2035.13 304.045 2035.27 307.766L2035.61 317.146L2035.32 332.415L2035.85 342.598C2036.26 350.496 2036.29 358.304 2034.77 366.126C2033.11 368.619 2030.44 371.482 2029.39 374.389L2024.37 388.293L2023.79 395.255L2023.8 395.262ZM1767.82 385.195L1770.35 369.128L1771.35 358.665L1771.65 343.804L1771.74 336.802L1771.83 330.225L1771.64 320.74L1771.46 311.256L1771.53 298.757L1771.34 290.437C1770.63 291.171 1770.36 291.832 1770.2 292.878L1764.15 330.966L1758.3 358.081L1752.99 378.572L1747.28 395.958C1747.27 397.923 1748.45 399.089 1750.22 399.207L1755.19 399.54L1760.86 399.534C1763.76 399.528 1766.04 397.745 1766.45 394.934L1767.83 385.189L1767.82 385.195ZM1867.92 402.116L1882.67 401.237C1884.52 401.124 1886.21 401.011 1887.57 399.652L1882.54 379.161L1874.44 357.104L1866.2 332.873L1856.29 303.42C1856.15 303.001 1855.59 302.146 1855.23 302.229C1854.87 302.312 1854.07 302.944 1853.86 303.391L1850.21 311.487L1842.84 331.273C1841.7 334.318 1841.05 338.142 1841.85 341.392L1848.3 367.611L1851.5 382.806L1854.76 397.381C1858.02 402.725 1861.47 402.514 1867.91 402.128L1867.92 402.116ZM1500.03 298.6L1500 298.987L1499.98 299.387L1499.98 299.775L1500.01 299.388L1500.02 298.988L1500.03 298.6ZM1817.82 400.56L1824.19 400.695L1827.53 400.362C1828.9 400.223 1831.42 398.82 1831.62 397.275C1830.15 394.132 1828.77 390.919 1826.81 388.439C1824.38 385.367 1822.63 382.705 1821.51 378.972L1814.53 355.953L1810.59 343.753L1806.9 334.625L1800.97 320.27C1800.19 318.388 1800.68 315.901 1798.78 314.465C1797.84 320.636 1798.93 326.142 1799.04 331.981L1799.24 342.588C1799.33 347.145 1798.92 351.453 1800.26 355.539C1801.53 352.679 1801.62 351.457 1803.47 349.372C1803.68 351.981 1803.7 353.633 1803.44 355.797L1802.38 364.656L1801.2 379.942L1801.21 391.76C1801.21 394.7 1801.48 397.293 1802.16 400.101L1808.88 400.57L1817.82 400.554L1817.82 400.56ZM2020.6 392.224C2019.28 386.481 2019.18 382.416 2019.45 377.332L2020 366.788L2022.2 350.295L2026.41 327.564C2026.6 326.531 2025.24 324.717 2024.29 324.757C2017.19 337.204 2009.88 348.725 2001.39 360.048L2000.96 378.021L2002.14 396.821C2002.23 398.366 2003.28 400.56 2004.12 401.865C2008.8 403.4 2013.01 401.509 2015.91 397.953L2020.59 392.218L2020.6 392.224ZM1967.52 375.564L1962.2 380.496C1960.9 381.704 1960.16 384.691 1959.94 386.592L1958.93 395.539C1958.69 397.772 1958.84 400.009 1960.68 401.202C1962.15 402.158 1964.09 402.03 1966.03 401.995L1977.22 401.81L1991.62 402.013C1994.7 402.058 1996.58 400.03 1996.42 397.084L1995.06 372.208L1994.29 360.357C1994.26 359.844 1993.82 358.779 1993.48 358.425C1993.13 358.071 1991.74 358.635 1991.34 358.951L1984.78 364.125C1979.4 368.365 1974.02 372.407 1968.18 375.432L1967.51 375.563L1967.52 375.564ZM2047.11 400.735L2048.12 397.512L2045.67 369.749C2041.72 379.643 2041.08 389.093 2039.28 398.85C2039.61 399.967 2039.93 401.299 2040.52 401.725C2041.59 402.491 2046.86 401.562 2047.11 400.735L2047.11 400.735ZM1601.61 389.178L1596.22 372.775L1593.22 362.494C1592.22 359.087 1591.91 355.858 1589.68 352.732C1586.28 363.919 1587.32 365.343 1590.46 373.443L1597.93 392.75C1598.68 394.679 1600.01 396.769 1602.82 395.532C1602.88 393.883 1602.3 391.271 1601.61 389.178ZM2062.97 397.414L2065.47 383.884C2065.51 383.676 2064.74 382.51 2064.64 382.722L2064.1 383.863L2060.02 392.452L2057 399.127C2057.17 400.187 2059.82 400.879 2060.74 400.456C2061.51 400.106 2062.68 398.936 2062.97 397.414ZM1927.96 392.792C1925.68 396.805 1925.44 401.077 1926.79 400.789C1929.28 400.254 1929.99 395.798 1927.96 392.792Z" fill="black" style="mix-blend-mode:color-burn" shape-rendering="crispEdges"/>
</g>
<defs>
<filter id="filter0_d_371_10" x="-0.000391006" y="-0.000391006" width="749.999" height="471.869" filterUnits="userSpaceOnUse" color-interpolation-filters="sRGB">
<feFlood flood-opacity="0" result="BackgroundImageFix"/>
<feColorMatrix in="SourceAlpha" type="matrix" values="0 0 0 0 0 0 0 0 0 0 0 0 0 0 0 0 0 0 127 0" result="hardAlpha"/>
<feOffset dx="-11" dy="3"/>
<feGaussianBlur stdDeviation="8.55"/>
<feComposite in2="hardAlpha" operator="out"/>
<feColorMatrix type="matrix" values="0 0 0 0 1 0 0 0 0 1 0 0 0 0 1 0 0 0 0.25 0"/>
<feBlend mode="normal" in2="BackgroundImageFix" result="effect1_dropShadow_371_10"/>
<feBlend mode="normal" in="SourceGraphic" in2="effect1_dropShadow_371_10" result="shape"/>
</filter>
<filter id="filter1_d_371_10" x="721.663" y="5.99961" width="749.999" height="471.869" filterUnits="userSpaceOnUse" color-interpolation-filters="sRGB">
<feFlood flood-opacity="0" result="BackgroundImageFix"/>
<feColorMatrix in="SourceAlpha" type="matrix" values="0 0 0 0 0 0 0 0 0 0 0 0 0 0 0 0 0 0 127 0" result="hardAlpha"/>
<feOffset dx="7" dy="3"/>
<feGaussianBlur stdDeviation="8.55"/>
<feComposite in2="hardAlpha" operator="out"/>
<feColorMatrix type="matrix" values="0 0 0 0 1 0 0 0 0 1 0 0 0 0 1 0 0 0 0.25 0"/>
<feBlend mode="normal" in2="BackgroundImageFix" result="effect1_dropShadow_371_10"/>
<feBlend mode="normal" in="SourceGraphic" in2="effect1_dropShadow_371_10" result="shape"/>
</filter>
<filter id="filter2_d_371_10" x="1430.67" y="10.9996" width="749.999" height="471.869" filterUnits="userSpaceOnUse" color-interpolation-filters="sRGB">
<feFlood flood-opacity="0" result="BackgroundImageFix"/>
<feColorMatrix in="SourceAlpha" type="matrix" values="0 0 0 0 0 0 0 0 0 0 0 0 0 0 0 0 0 0 127 0" result="hardAlpha"/>
<feOffset dx="7" dy="3"/>
<feGaussianBlur stdDeviation="8.55"/>
<feComposite in2="hardAlpha" operator="out"/>
<feColorMatrix type="matrix" values="0 0 0 0 1 0 0 0 0 1 0 0 0 0 1 0 0 0 0.25 0"/>
<feBlend mode="normal" in2="BackgroundImageFix" result="effect1_dropShadow_371_10"/>
<feBlend mode="normal" in="SourceGraphic" in2="effect1_dropShadow_371_10" result="shape"/>
</filter>
</defs>
</svg>
