<?xml version="1.0" encoding="UTF-8"?>
<svg id="Layer_1" data-name="Layer 1" xmlns="http://www.w3.org/2000/svg" viewBox="0 0 309.02 322.84">
  <defs>
    <style>
      .cls-1 {
        fill: #fff;
      }
    </style>
  </defs>
  <path class="cls-1" d="M305.6,141.17l-44.43-17.44c-1.83-.72-3.82-.34-5.28.79-1.1-.23-2.28-.14-3.37.36l-43.3,20.07c-.95.44-1.7,1.14-2.23,1.96-.09.02-.17.07-.26.09-2.25-3.89-4.74-7.51-7.45-10.82l33.13-32.82c.59-.58,1-1.28,1.26-2.02.88-.44,1.65-1.11,2.19-2l24.78-40.79c.63-1.03.84-2.19.74-3.31,1.29-1.32,1.89-3.26,1.38-5.16l-12.38-46.09c-.77-2.87-3.74-4.58-6.61-3.81-2.87.77-4.58,3.74-3.81,6.61l12.16,45.26c-.26.27-.49.57-.69.9l-24.78,40.79c-.2.32-.35.66-.47,1.01-.48.25-.95.54-1.35.95l-32.99,32.67c-.38-.34-.74-.7-1.12-1.02-6.49-5.56-10-13.99-8.55-22.41.44-2.54.67-5.2.67-7.92,0-19.32-11.61-34.97-25.92-34.97s-25.92,15.66-25.92,34.97c0,2.72.23,5.38.67,7.92,1.45,8.42-2.05,16.85-8.55,22.41-.38.33-.74.69-1.12,1.02l-32.99-32.67c-.4-.4-.87-.7-1.35-.95-.12-.34-.28-.68-.47-1.01l-24.78-40.79c-.2-.33-.43-.63-.69-.9l12.16-45.26c.77-2.87-.94-5.84-3.81-6.61-2.87-.77-5.84.94-6.61,3.81l-12.38,46.09c-.51,1.9.09,3.84,1.38,5.16-.11,1.12.11,2.28.74,3.31l24.78,40.79c.54.9,1.32,1.56,2.2,2,.26.74.67,1.43,1.26,2.02l33.13,32.82c-3.23,3.94-6.16,8.32-8.73,13.08l-1.64-1.32c-.65-.52-1.38-.85-2.14-1.03-.53-.82-1.28-1.52-2.23-1.96l-43.3-20.07c-1.09-.51-2.27-.6-3.37-.36-1.46-1.13-3.45-1.51-5.28-.79L3.42,141.17c-2.76,1.08-4.13,4.23-3.05,6.99,1.08,2.76,4.23,4.13,6.99,3.05l43.62-17.13c.3.22.62.42.97.59l43.3,20.07c.34.16.7.28,1.05.36.3.45.65.88,1.09,1.24l3.75,3.02c-3.85,9.76-6.34,20.64-7.11,32.2-.57-.03-1.14.01-1.68.16-.86-.47-1.85-.73-2.9-.67l-47.64,2.85c-1.2.07-2.28.55-3.14,1.28-1.82-.31-3.75.3-5.02,1.8L2.81,233.4c-1.92,2.26-1.63,5.69.63,7.6,2.26,1.92,5.69,1.63,7.6-.63l30.29-35.76c.37.06.75.08,1.13.06l47.64-2.85c.38-.02.75-.09,1.1-.18.48.26.99.47,1.55.57l1.05.2c.37,14.11,3.28,27.34,8.14,38.9l-3.04.64c-.81.17-1.53.54-2.15,1.01-.98-.11-1.99.04-2.93.5l-42.9,20.91c-1.08.53-1.89,1.38-2.41,2.39-1.8.41-3.35,1.72-3.95,3.59l-14.52,45.47c-.9,2.83.67,5.88,3.5,6.78,2.83.9,5.88-.67,6.78-3.5l14.26-44.65c.36-.09.72-.21,1.07-.38l42.9-20.91c.34-.17.66-.37.94-.59.54.05,1.09.05,1.65-.06l5.71-1.21c11.55,20.22,29.67,33.27,50.06,33.27s37.96-12.65,49.53-32.36l1.43.3c.56.12,1.11.12,1.65.06.29.22.6.42.94.59l42.9,20.91c.35.17.71.29,1.07.38l14.26,44.65c.9,2.83,3.95,4.4,6.78,3.5,2.83-.9,4.4-3.95,3.5-6.78l-14.52-45.47c-.6-1.88-2.15-3.18-3.95-3.59-.51-1-1.33-1.86-2.41-2.39l-42.9-20.91c-.94-.46-1.95-.6-2.93-.5-.27-.2-.56-.38-.86-.53,5.21-11.96,8.31-25.78,8.63-40.54l46.51,2.79c.39.02.76,0,1.13-.06l30.29,35.76c1.92,2.26,5.34,2.55,7.6.63,2.26-1.92,2.55-5.34.63-7.6l-30.85-36.42c-1.27-1.5-3.2-2.11-5.02-1.8-.86-.73-1.94-1.21-3.14-1.28l-47.44-2.84c-.9-12.53-3.79-24.26-8.27-34.61l.14-.11c.44-.36.79-.78,1.09-1.24.36-.08.71-.2,1.05-.36l43.3-20.07c.35-.16.67-.36.97-.59l43.62,17.13c2.76,1.08,5.91-.29,6.99-3.05,1.08-2.76-.29-5.91-3.05-6.99Z"/>
</svg>